<?xml version="1.0" encoding="UTF-8"?>
<!DOCTYPE svg PUBLIC "-//W3C//DTD SVG 1.1//EN" "http://www.w3.org/Graphics/SVG/1.1/DTD/svg11.dtd">
<!-- Creator: CorelDRAW 2020 (64-Bit) -->
<svg xmlns="http://www.w3.org/2000/svg" xml:space="preserve" width="124.705mm" height="63.0547mm" version="1.1" style="shape-rendering:geometricPrecision; text-rendering:geometricPrecision; image-rendering:optimizeQuality; fill-rule:evenodd; clip-rule:evenodd"
viewBox="0 0 1081.26 546.72"
 xmlns:xlink="http://www.w3.org/1999/xlink"
 xmlns:xodm="http://www.corel.com/coreldraw/odm/2003">
 <defs>
  <style type="text/css">
   <![CDATA[
    .str0 {stroke:#3E4095;stroke-width:6.12;stroke-miterlimit:22.9256}
    .str2 {stroke:#3E4095;stroke-width:1.73;stroke-miterlimit:22.9256}
    .str1 {stroke:#373435;stroke-width:0.66;stroke-miterlimit:22.9256}
    .fil5 {fill:none}
    .fil1 {fill:none}
    .fil4 {fill:#FEFEFE}
    .fil3 {fill:#3E4095}
    .fil2 {fill:#FEFEFE;fill-rule:nonzero}
    .fil0 {fill:#3E4095}
   ]]>
  </style>
     <clipPath id="id0">
      <path d="M198.21 5.32l883.05 -5.32 0 372.86 -883.05 5.32 0 -372.86z"/>
     </clipPath>
    <clipPath id="id1">
     <path d="M310.11 266.89l660.64 0 0 279.83 -660.64 0 0 -279.83z"/>
    </clipPath>
 </defs>
 <g id="Capa_x0020_1">
  <metadata id="CorelCorpID_0Corel-Layer"/>
  <g id="_2088696808736">
   <path class="fil0" d="M218.39 266.73c4.38,0 7.92,3.55 7.92,7.92 0,4.37 -3.55,7.92 -7.92,7.92 -4.37,0 -7.92,-3.55 -7.92,-7.92 0,-4.38 3.55,-7.92 7.92,-7.92z"/>
   <path class="fil0" d="M273.11 326.61c3.12,0 5.66,2.53 5.66,5.66 0,3.12 -2.53,5.66 -5.66,5.66 -3.12,0 -5.66,-2.53 -5.66,-5.66 0,-3.12 2.53,-5.66 5.66,-5.66z"/>
   <path class="fil0" d="M163.23 324.55c3.12,0 5.66,2.53 5.66,5.66 0,3.12 -2.53,5.66 -5.66,5.66 -3.12,0 -5.66,-2.53 -5.66,-5.66 0,-3.12 2.53,-5.66 5.66,-5.66z"/>
   <path class="fil0" d="M163.68 212.86c3.12,0 5.66,2.53 5.66,5.66 0,3.12 -2.53,5.66 -5.66,5.66 -3.12,0 -5.66,-2.53 -5.66,-5.66 0,-3.12 2.53,-5.66 5.66,-5.66z"/>
   <path class="fil0" d="M218.4 191.15c3.12,0 5.66,2.53 5.66,5.66 0,3.12 -2.53,5.66 -5.66,5.66 -3.12,0 -5.66,-2.53 -5.66,-5.66 0,-3.12 2.53,-5.66 5.66,-5.66z"/>
   <path class="fil0" d="M140.92 268.37c3.12,0 5.66,2.53 5.66,5.66 0,3.12 -2.53,5.66 -5.66,5.66 -3.12,0 -5.66,-2.53 -5.66,-5.66 0,-3.12 2.53,-5.66 5.66,-5.66z"/>
   <path class="fil0" d="M295.82 271.3c3.12,0 5.66,2.53 5.66,5.66 0,3.12 -2.53,5.66 -5.66,5.66 -3.12,0 -5.66,-2.53 -5.66,-5.66 0,-3.12 2.53,-5.66 5.66,-5.66z"/>
   <path class="fil0" d="M273.12 215.24c3.12,0 5.66,2.53 5.66,5.66 0,3.12 -2.53,5.66 -5.66,5.66 -3.12,0 -5.66,-2.53 -5.66,-5.66 0,-3.12 2.53,-5.66 5.66,-5.66z"/>
   <path class="fil0" d="M218.39 348.65c3.12,0 5.66,2.53 5.66,5.66 0,3.12 -2.53,5.66 -5.66,5.66 -3.12,0 -5.66,-2.53 -5.66,-5.66 0,-3.12 2.53,-5.66 5.66,-5.66z"/>
   <path class="fil0" d="M92.57 323.31c3.12,0 5.66,2.53 5.66,5.66 0,3.12 -2.53,5.66 -5.66,5.66 -3.12,0 -5.66,-2.53 -5.66,-5.66 0,-3.12 2.53,-5.66 5.66,-5.66z"/>
   <path class="fil0" d="M168.16 398.93c3.12,0 5.66,2.53 5.66,5.66 0,3.12 -2.53,5.66 -5.66,5.66 -3.12,0 -5.66,-2.53 -5.66,-5.66 0,-3.12 2.53,-5.66 5.66,-5.66z"/>
   <path class="fil0" d="M273.18 398.96c3.12,0 5.66,2.53 5.66,5.66 0,3.12 -2.53,5.66 -5.66,5.66 -3.12,0 -5.66,-2.53 -5.66,-5.66 0,-3.12 2.53,-5.66 5.66,-5.66z"/>
   <path class="fil0" d="M346.11 323.4c3.12,0 5.66,2.53 5.66,5.66 0,3.12 -2.53,5.66 -5.66,5.66 -3.12,0 -5.66,-2.53 -5.66,-5.66 0,-3.12 2.53,-5.66 5.66,-5.66z"/>
   <path class="fil0" d="M344.22 216.49c3.12,0 5.66,2.53 5.66,5.66 0,3.12 -2.53,5.66 -5.66,5.66 -3.12,0 -5.66,-2.53 -5.66,-5.66 0,-3.12 2.53,-5.66 5.66,-5.66z"/>
   <path class="fil0" d="M268.63 140.87c3.12,0 5.66,2.53 5.66,5.66 0,3.12 -2.53,5.66 -5.66,5.66 -3.12,0 -5.66,-2.53 -5.66,-5.66 0,-3.12 2.53,-5.66 5.66,-5.66z"/>
   <path class="fil0" d="M163.61 140.84c3.12,0 5.66,2.53 5.66,5.66 0,3.12 -2.53,5.66 -5.66,5.66 -3.12,0 -5.66,-2.53 -5.66,-5.66 0,-3.12 2.53,-5.66 5.66,-5.66z"/>
   <path class="fil0" d="M90.68 216.41c3.12,0 5.66,2.53 5.66,5.66 0,3.12 -2.53,5.66 -5.66,5.66 -3.12,0 -5.66,-2.53 -5.66,-5.66 0,-3.12 2.53,-5.66 5.66,-5.66z"/>
   <path class="fil0" d="M87.82 269.13c2.19,0 3.96,1.77 3.96,3.96 0,2.19 -1.77,3.96 -3.96,3.96 -2.19,0 -3.96,-1.77 -3.96,-3.96 0,-2.19 1.77,-3.96 3.96,-3.96z"/>
   <path class="fil0" d="M45.24 268.32c2.19,0 3.96,1.77 3.96,3.96 0,2.19 -1.77,3.96 -3.96,3.96 -2.19,0 -3.96,-1.77 -3.96,-3.96 0,-2.19 1.77,-3.96 3.96,-3.96z"/>
   <path class="fil0" d="M128.36 177.92c2.19,0 3.96,1.77 3.96,3.96 0,2.19 -1.77,3.96 -3.96,3.96 -2.19,0 -3.96,-1.77 -3.96,-3.96 0,-2.19 1.77,-3.96 3.96,-3.96z"/>
   <path class="fil0" d="M98.94 147.37c2.19,0 3.96,1.77 3.96,3.96 0,2.19 -1.77,3.96 -3.96,3.96 -2.19,0 -3.96,-1.77 -3.96,-3.96 0,-2.19 1.77,-3.96 3.96,-3.96z"/>
   <path class="fil0" d="M217.94 141.07c2.19,0 3.96,1.77 3.96,3.96 0,2.19 -1.77,3.96 -3.96,3.96 -2.19,0 -3.96,-1.77 -3.96,-3.96 0,-2.19 1.77,-3.96 3.96,-3.96z"/>
   <path class="fil0" d="M217.94 98.03c2.19,0 3.96,1.77 3.96,3.96 0,2.19 -1.77,3.96 -3.96,3.96 -2.19,0 -3.96,-1.77 -3.96,-3.96 0,-2.19 1.77,-3.96 3.96,-3.96z"/>
   <path class="fil0" d="M309.3 179.71c2.19,0 3.96,1.77 3.96,3.96 0,2.19 -1.77,3.96 -3.96,3.96 -2.19,0 -3.96,-1.77 -3.96,-3.96 0,-2.19 1.77,-3.96 3.96,-3.96z"/>
   <path class="fil0" d="M339.74 149.27c2.19,0 3.96,1.77 3.96,3.96 0,2.19 -1.77,3.96 -3.96,3.96 -2.19,0 -3.96,-1.77 -3.96,-3.96 0,-2.19 1.77,-3.96 3.96,-3.96z"/>
   <path class="fil0" d="M347.78 273.96c2.19,0 3.96,1.77 3.96,3.96 0,2.19 -1.77,3.96 -3.96,3.96 -2.19,0 -3.96,-1.77 -3.96,-3.96 0,-2.19 1.77,-3.96 3.96,-3.96z"/>
   <path class="fil0" d="M391.19 274.82c2.19,0 3.96,1.77 3.96,3.96 0,2.19 -1.77,3.96 -3.96,3.96 -2.19,0 -3.96,-1.77 -3.96,-3.96 0,-2.19 1.77,-3.96 3.96,-3.96z"/>
   <path class="fil0" d="M307.8 364.18c2.19,0 3.96,1.77 3.96,3.96 0,2.19 -1.77,3.96 -3.96,3.96 -2.19,0 -3.96,-1.77 -3.96,-3.96 0,-2.19 1.77,-3.96 3.96,-3.96z"/>
   <path class="fil0" d="M217.92 401.08c2.19,0 3.96,1.77 3.96,3.96 0,2.19 -1.77,3.96 -3.96,3.96 -2.19,0 -3.96,-1.77 -3.96,-3.96 0,-2.19 1.77,-3.96 3.96,-3.96z"/>
   <path class="fil0" d="M337.56 395.15c2.19,0 3.96,1.77 3.96,3.96 0,2.19 -1.77,3.96 -3.96,3.96 -2.19,0 -3.96,-1.77 -3.96,-3.96 0,-2.19 1.77,-3.96 3.96,-3.96z"/>
   <path class="fil0" d="M217.92 444.12c2.19,0 3.96,1.77 3.96,3.96 0,2.19 -1.77,3.96 -3.96,3.96 -2.19,0 -3.96,-1.77 -3.96,-3.96 0,-2.19 1.77,-3.96 3.96,-3.96z"/>
   <path class="fil0" d="M126.41 363.08c2.19,0 3.96,1.77 3.96,3.96 0,2.19 -1.77,3.96 -3.96,3.96 -2.19,0 -3.96,-1.77 -3.96,-3.96 0,-2.19 1.77,-3.96 3.96,-3.96z"/>
   <path class="fil0" d="M96.53 393.03c2.19,0 3.96,1.77 3.96,3.96 0,2.19 -1.77,3.96 -3.96,3.96 -2.19,0 -3.96,-1.77 -3.96,-3.96 0,-2.19 1.77,-3.96 3.96,-3.96z"/>
   <path class="fil0" d="M71.26 115.77c3.75,0 6.79,3.04 6.79,6.79 0,3.75 -3.04,6.79 -6.79,6.79 -3.75,0 -6.79,-3.04 -6.79,-6.79 0,-3.75 3.04,-6.79 6.79,-6.79z"/>
   <path class="fil0" d="M218.42 56.28c3.75,0 6.79,3.04 6.79,6.79 0,3.75 -3.04,6.79 -6.79,6.79 -3.75,0 -6.79,-3.04 -6.79,-6.79 0,-3.75 3.04,-6.79 6.79,-6.79z"/>
   <path class="fil0" d="M368.41 118.2c3.75,0 6.79,3.04 6.79,6.79 0,3.75 -3.04,6.79 -6.79,6.79 -3.75,0 -6.79,-3.04 -6.79,-6.79 0,-3.75 3.04,-6.79 6.79,-6.79z"/>
   <path class="fil0" d="M429.89 272.71c3.75,0 6.79,3.04 6.79,6.79 0,3.75 -3.04,6.79 -6.79,6.79 -3.75,0 -6.79,-3.04 -6.79,-6.79 0,-3.75 3.04,-6.79 6.79,-6.79z"/>
   <path class="fil0" d="M364.8 420.57c3.75,0 6.79,3.04 6.79,6.79 0,3.75 -3.04,6.79 -6.79,6.79 -3.75,0 -6.79,-3.04 -6.79,-6.79 0,-3.75 3.04,-6.79 6.79,-6.79z"/>
   <path class="fil0" d="M217.92 479.45c3.75,0 6.79,3.04 6.79,6.79 0,3.75 -3.04,6.79 -6.79,6.79 -3.75,0 -6.79,-3.04 -6.79,-6.79 0,-3.75 3.04,-6.79 6.79,-6.79z"/>
   <path class="fil0" d="M69.21 417.46c3.75,0 6.79,3.04 6.79,6.79 0,3.75 -3.04,6.79 -6.79,6.79 -3.75,0 -6.79,-3.04 -6.79,-6.79 0,-3.75 3.04,-6.79 6.79,-6.79z"/>
   <path class="fil0" d="M6.79 264.69c3.75,0 6.79,3.04 6.79,6.79 0,3.75 -3.04,6.79 -6.79,6.79 -3.75,0 -6.79,-3.04 -6.79,-6.79 0,-3.75 3.04,-6.79 6.79,-6.79z"/>
   <g>
    <polygon class="fil1 str0" points="163.15,146.5 217.94,196.81 268.17,146.53 272.66,220.9 343.76,222.15 295.32,277.01 345.65,329.05 272.65,332.27 272.72,404.62 217.93,354.31 167.7,404.59 163.21,330.22 92.11,328.97 140.55,274.11 90.23,222.06 163.22,218.85 "/>
    <g>
     <line class="fil1 str0" x1="192.17" y1="471.64" x2="217.92" y2= "445.79" />
     <line class="fil1 str0" x1="217.87" y1="445.7" x2="243.63" y2= "471.55" />
     <line class="fil1 str0" x1="179.11" y1="441.7" x2="217.92" y2= "402.74" />
     <line class="fil1 str0" x1="217.85" y1="402.61" x2="256.66" y2= "441.57" />
     <line class="fil1 str0" x1="338.8" y1="154.25" x2="338.86" y2= "117.76" />
     <g>
      <line class="fil1 str0" x1="192.18" y1="78.43" x2="217.94" y2= "104.28" />
      <line class="fil1 str0" x1="217.88" y1="104.37" x2="243.64" y2= "78.52" />
      <line class="fil1 str0" x1="179.12" y1="108.37" x2="217.94" y2= "147.32" />
      <line class="fil1 str0" x1="217.86" y1="147.45" x2="256.68" y2= "108.5" />
      <line class="fil1 str0" x1="375.32" y1="154.08" x2="338.83" y2= "154.15" />
      <line class="fil1 str0" x1="363.38" y1="184.49" x2="308.39" y2= "184.58" />
      <line class="fil1 str0" x1="308.35" y1="184.73" x2="308.45" y2= "129.74" />
      <g>
       <line class="fil1 str0" x1="217.96" y1="63.07" x2="217.92" y2= "486.24" />
       <g>
        <line class="fil1 str0" x1="97.29" y1="432.13" x2="97.35" y2= "395.64" />
        <g>
         <g>
          <g>
           <line class="fil1 str0" x1="6.33" y1="271.48" x2="429.43" y2= "279.5" />
           <line class="fil1 str0" x1="21.2" y1="297.55" x2="47.53" y2= "272.28" />
           <line class="fil1 str0" x1="47.62" y1="272.33" x2="22.26" y2= "246.09" />
           <line class="fil1 str0" x1="50.89" y1="311.17" x2="90.57" y2= "273.09" />
           <line class="fil1 str0" x1="90.7" y1="273.17" x2="52.48" y2= "233.63" />
           <line class="fil1 str0" x1="414.34" y1="304.97" x2="388.98" y2= "278.73" />
           <line class="fil1 str0" x1="388.89" y1="278.78" x2="415.22" y2= "253.51" />
           <line class="fil1 str0" x1="384.16" y1="317.46" x2="345.95" y2= "277.92" />
           <line class="fil1 str0" x1="345.81" y1="277.99" x2="385.49" y2= "239.92" />
          </g>
          <g>
           <line class="fil1 str0" x1="70.8" y1="122.55" x2="364.34" y2= "427.36" />
           <line class="fil1 str0" x1="62.89" y1="151.5" x2="99.38" y2= "152.25" />
           <line class="fil1 str0" x1="99.4" y1="152.35" x2="100.02" y2= "115.86" />
           <line class="fil1 str0" x1="74.26" y1="182.12" x2="129.24" y2= "183.25" />
           <line class="fil1 str0" x1="129.27" y1="183.4" x2="130.21" y2= "128.41" />
           <line class="fil1 str0" x1="335.67" y1="434.71" x2="336.29" y2= "398.22" />
           <line class="fil1 str0" x1="336.19" y1="398.2" x2="372.67" y2= "398.94" />
           <line class="fil1 str0" x1="305.49" y1="422.21" x2="306.43" y2= "367.22" />
           <line class="fil1 str0" x1="306.28" y1="367.18" x2="361.26" y2= "368.31" />
          </g>
          <line class="fil1 str0" x1="367.95" y1="124.99" x2="68.75" y2= "424.25" />
         </g>
         <line class="fil1 str0" x1="97.45" y1="395.62" x2="60.96" y2= "395.68" />
        </g>
        <line class="fil1 str0" x1="127.69" y1="420.2" x2="127.79" y2= "365.21" />
        <line class="fil1 str0" x1="127.93" y1="365.17" x2="72.94" y2= "365.26" />
       </g>
      </g>
     </g>
    </g>
   </g>
  </g>
  <g id="_2088698328048">
   <g>
    <path class="fil2" d="M632.57 200.75c0,-14.76 -4.02,-26.62 -12.06,-35.64 -8.09,-8.97 -18.63,-13.48 -31.77,-13.48 -13.48,0 -24.02,4.17 -31.62,12.5 -7.55,8.33 -11.33,19.95 -11.33,34.91 0,15.89 3.82,28.14 11.42,36.72 7.6,8.63 18.39,12.94 32.41,12.94 13.38,0 23.93,-4.22 31.53,-12.7 7.6,-8.48 11.42,-20.25 11.42,-35.25z"/>
    <path class="fil2" d="M948.22 201.21c0,-14.86 -4.07,-26.82 -12.16,-35.84 -8.09,-9.07 -18.63,-13.58 -31.67,-13.58 -13.48,0 -24.02,4.17 -31.57,12.5 -7.6,8.34 -11.37,19.95 -11.37,34.91 0,15.88 3.82,28.14 11.42,36.72 7.6,8.63 18.44,12.94 32.41,12.94 13.38,0 23.93,-4.17 31.53,-12.55 7.6,-8.38 11.42,-20.1 11.42,-35.1z"/>
    <path class="fil2 str1" d="M275.41 242.34l15.93 0c25.84,0 43.73,-1.13 53.69,-3.38 9.95,-2.26 18.24,-6.08 24.86,-11.57 8.63,-7.16 15.2,-16.42 19.66,-27.75 4.51,-11.37 6.77,-24.37 6.77,-39.03 0,-14.71 -2.21,-27.65 -6.67,-38.83 -4.46,-11.13 -11.03,-20.35 -19.76,-27.65 -6.62,-5.54 -15,-9.46 -25.2,-11.82 -10.2,-2.35 -27.95,-3.53 -53.34,-3.53l-15.93 0 0 163.56z"/>
   </g>
   <path class="fil3" d="M241.63 274.09l0 -226.58 48.52 0c12.89,0 25.89,0.23 38.75,1.15 8.64,0.62 17.88,1.52 26.3,3.6 12.76,3.15 24.69,8.56 35.13,16.6 13.34,10.29 23.29,23.38 29.96,38.86 7.23,16.79 9.98,35.03 9.98,53.22 0,18.12 -2.75,36.23 -9.92,52.96 -6.65,15.51 -16.63,28.58 -30.03,38.84 -10.25,7.86 -21.78,13.36 -34.3,16.57 -7.71,1.98 -15.95,2.96 -23.87,3.62 -10.94,0.9 -21.99,1.15 -32.96,1.15l-57.54 0zm206.85 -202.96c0,-6.65 2.48,-12.61 7.18,-17.31 4.76,-4.76 10.79,-7.18 17.51,-7.18 6.71,0 12.65,2.55 17.36,7.33 4.71,4.78 7.14,10.76 7.14,17.47 0,6.65 -2.43,12.56 -7.13,17.26 -4.72,4.72 -10.7,7.14 -17.36,7.14 -6.7,0 -12.68,-2.38 -17.47,-7.09 -4.82,-4.75 -7.23,-10.85 -7.23,-17.6zm5.3 202.96l0 -147.74 38.89 0 0 147.74 -38.89 0zm95.99 -4.48c-6.01,-3.39 -11.55,-7.82 -16.54,-13.37 -14.14,-15.74 -19.39,-35.7 -19.39,-56.52 0,-20.64 4.88,-40.75 18.87,-56.48 13.39,-15.06 31.04,-21.6 51.03,-21.6 11.64,0 22.89,2.54 32.92,8.56 2.57,1.55 4.97,3.28 7.21,5.17l0 -9.02 38.6 0 0 137.31c0,9.99 -0.25,23.37 -3.27,32.94 -2.29,7.25 -6.08,13.7 -11.24,19.29 -7.12,7.72 -15.82,13.29 -25.66,16.92 -10.62,3.91 -22.03,5.4 -33.3,5.4 -18.35,0 -37.21,-3.63 -51.76,-15.51 -13.92,-11.36 -19.92,-27.09 -20.44,-44.74l-0.25 -8.36 33.23 0zm74.68 -5.61c-2.36,2.01 -4.89,3.85 -7.59,5.51 -9.74,5.96 -20.58,8.7 -31.99,8.7 -9.45,0 -18.35,-1.48 -26.54,-4.59l0 5.83c0,6.64 1.78,12.33 7.1,16.52 6.47,5.1 15.87,6.3 23.85,6.3 6.61,0 13.65,-0.85 19.71,-3.63 4.67,-2.14 8.34,-5.29 10.92,-9.74l0.06 -0.1 0.06 -0.1c1.63,-2.63 2.65,-5.65 3.25,-8.67 0.99,-5 1.15,-10.85 1.17,-16.02zm63.2 -192.88c0,-6.65 2.48,-12.61 7.18,-17.31 4.76,-4.76 10.79,-7.18 17.51,-7.18 6.71,0 12.65,2.55 17.36,7.33 4.71,4.78 7.14,10.76 7.14,17.47 0,6.65 -2.44,12.56 -7.14,17.26 -4.72,4.72 -10.7,7.14 -17.36,7.14 -6.7,0 -12.68,-2.38 -17.47,-7.09 -4.82,-4.75 -7.23,-10.85 -7.23,-17.6zm5.3 202.96l0 -147.74 38.89 0 0 147.74 -38.89 0zm73.59 -112.96l-24.12 0 0 -34.78 24.12 0 0 -52.95 39.19 0 0 52.95 24.12 0 0 34.78 -24.12 0 0 112.96 -39.19 0 0 -112.96zm173.22 104.07c-2.43,2.1 -5.04,4.01 -7.83,5.73 -9.69,5.95 -20.39,8.75 -31.75,8.75 -20.32,0 -38.11,-6.9 -51.67,-22.2 -14.12,-15.92 -19.35,-35.97 -19.35,-56.92 0,-20.77 4.88,-41.05 18.83,-56.98 13.34,-15.24 30.97,-21.94 51.07,-21.94 11.62,0 22.89,2.49 32.87,8.6 2.59,1.58 5,3.36 7.25,5.29l0 -9.19 38.6 0 0 147.74 -38.01 0 0 -8.89zm67.91 8.89l0 -238.93 39.19 0 0 238.93 -39.19 0zm-724.48 -39.78l7.81 0c10.74,0 21.56,-0.15 32.29,-0.83 6.36,-0.4 13.37,-0.94 19.6,-2.35 7.77,-1.76 15.29,-4.78 21.47,-9.9 7.92,-6.57 13.52,-14.94 17.29,-24.48 4.52,-11.44 6.2,-23.8 6.2,-36.04 0,-12.11 -1.57,-24.51 -6.09,-35.81 -3.83,-9.57 -9.52,-17.82 -17.43,-24.44 -6.25,-5.23 -13.94,-8.31 -21.81,-10.13 -6.27,-1.45 -13.27,-2.03 -19.68,-2.46 -10.57,-0.7 -21.24,-0.86 -31.83,-0.86l-7.81 0 0 147.32zm341.27 -33.65c0,-11.05 -2.46,-21.82 -9.99,-30.22 -6.87,-7.67 -15.5,-10.78 -25.72,-10.78 -9.78,0 -18.89,2.44 -25.61,9.84 -7.24,7.96 -9.22,19.02 -9.22,29.45 0,10.89 1.94,22.91 9.39,31.35 6.83,7.73 16.26,10.2 26.32,10.2 9.81,0 18.8,-2.54 25.48,-10 7.28,-8.12 9.35,-19.24 9.35,-29.83zm315.3 0.88c0,-11.13 -2.52,-21.96 -10.09,-30.43 -6.87,-7.68 -15.42,-10.87 -25.62,-10.87 -9.77,0 -18.85,2.45 -25.56,9.84 -7.26,7.98 -9.26,18.98 -9.26,29.45 0,10.88 1.94,22.91 9.39,31.35 6.82,7.72 16.29,10.2 26.32,10.2 9.77,0 18.8,-2.49 25.51,-9.88 7.28,-8.03 9.32,-19.14 9.32,-29.65z"/>
   <g>
    <g style="clip-path:url(#id0)">
     <image x="198.21" y="0" width="883.05" height="378.18" xlink:href="logos_Images\logos_ImgID1.png"/>
    </g>
   </g>
   <path class="fil2" d="M274.18 242.44l15.93 0c25.84,0 43.73,-1.13 53.69,-3.38 9.95,-2.26 18.24,-6.08 24.86,-11.57 8.63,-7.16 15.2,-16.42 19.66,-27.75 4.51,-11.37 6.77,-24.37 6.77,-39.03 0,-14.71 -2.21,-27.65 -6.67,-38.83 -4.46,-11.13 -11.03,-20.35 -19.76,-27.65 -6.62,-5.54 -15,-9.46 -25.2,-11.82 -10.2,-2.35 -27.95,-3.53 -53.34,-3.53l-15.93 0 0 163.56zm-25.3 23.53l0 -210.33 40.4 0c29.86,0 50.89,1.52 63.1,4.51 12.21,3.04 22.95,8.09 32.11,15.15 12.06,9.32 21.23,21.18 27.46,35.64 6.23,14.46 9.32,31.13 9.32,50.01 0,18.78 -3.09,35.35 -9.27,49.76 -6.18,14.41 -15.35,26.28 -27.5,35.59 -9.22,7.06 -19.66,12.11 -31.38,15.15 -11.77,2.99 -30.01,4.51 -54.81,4.51l-9.02 0 -40.4 0zm206.85 -194.84c0,-4.46 1.62,-8.34 4.8,-11.57 3.24,-3.19 7.16,-4.81 11.77,-4.81 4.46,0 8.34,1.62 11.57,4.9 3.19,3.24 4.8,7.16 4.8,11.77 0,4.51 -1.57,8.38 -4.76,11.52 -3.14,3.19 -7.06,4.76 -11.62,4.76 -4.61,0 -8.53,-1.57 -11.77,-4.76 -3.19,-3.14 -4.8,-7.11 -4.8,-11.82zm5.29 194.84l0 -131.49 22.65 0 0 131.49 -22.65 0zm170.67 -65.31c0,-14.76 -4.02,-26.62 -12.06,-35.64 -8.09,-8.97 -18.63,-13.48 -31.77,-13.48 -13.48,0 -24.02,4.17 -31.62,12.5 -7.55,8.33 -11.33,19.95 -11.33,34.91 0,15.89 3.82,28.14 11.42,36.72 7.6,8.63 18.39,12.94 32.41,12.94 13.38,0 23.93,-4.22 31.53,-12.7 7.6,-8.48 11.42,-20.25 11.42,-35.25zm21.77 -66.19l0 129.19c0,14.27 -0.98,24.42 -2.89,30.5 -1.91,6.03 -5.05,11.42 -9.46,16.23 -6.13,6.62 -13.63,11.57 -22.5,14.81 -8.82,3.29 -19.02,4.9 -30.5,4.9 -19.95,0 -35.45,-4.56 -46.63,-13.68 -11.18,-9.12 -16.96,-22.01 -17.45,-38.68l25.3 0 0 1.72c0,9.9 3.38,17.5 10.2,22.9 6.82,5.34 16.42,8.04 28.88,8.04 9.02,0 16.72,-1.47 23.09,-4.36 6.37,-2.94 11.23,-7.3 14.56,-13.04 2.01,-3.24 3.48,-7.06 4.31,-11.37 0.88,-4.31 1.32,-10.49 1.32,-18.53l0 -10.34 0 -11.72c-5.1,9.36 -11.77,16.52 -19.95,21.57 -8.24,5 -17.5,7.5 -27.75,7.5 -18.88,0 -34.07,-6.42 -45.6,-19.27 -11.52,-12.8 -17.31,-29.86 -17.31,-51.09 0,-21.47 5.59,-38.49 16.82,-51.09 11.18,-12.6 26.18,-18.88 44.96,-18.88 10.88,0 20.49,2.45 28.73,7.4 8.24,4.95 14.71,12.26 19.51,21.82l0 -24.51 22.36 0zm41.43 -63.34c0,-4.46 1.62,-8.34 4.8,-11.57 3.24,-3.19 7.16,-4.81 11.77,-4.81 4.46,0 8.34,1.62 11.57,4.9 3.19,3.24 4.8,7.16 4.8,11.77 0,4.51 -1.57,8.38 -4.76,11.52 -3.14,3.19 -7.06,4.76 -11.62,4.76 -4.61,0 -8.53,-1.57 -11.77,-4.76 -3.19,-3.14 -4.8,-7.11 -4.8,-11.82zm5.29 194.84l0 -131.49 22.65 0 0 131.49 -22.65 0zm73.59 -112.96l-24.12 0 0 -18.53 24.12 0 0 -52.95 22.94 0 0 52.95 24.12 0 0 18.53 -24.12 0 0 112.96 -22.94 0 0 -112.96zm173.22 48.54c0,-14.86 -4.07,-26.82 -12.16,-35.84 -8.09,-9.07 -18.63,-13.58 -31.67,-13.58 -13.48,0 -24.02,4.17 -31.57,12.5 -7.6,8.34 -11.37,19.95 -11.37,34.91 0,15.88 3.82,28.14 11.42,36.72 7.6,8.63 18.44,12.94 32.41,12.94 13.38,0 23.93,-4.17 31.53,-12.55 7.6,-8.38 11.42,-20.1 11.42,-35.1zm21.77 -67.07l0 131.49 -21.77 0 0 -23.83c-5.25,9.56 -12.01,16.87 -20.2,21.87 -8.19,5.05 -17.36,7.55 -27.5,7.55 -18.83,0 -34.07,-6.47 -45.6,-19.46 -11.52,-12.99 -17.31,-30.15 -17.31,-51.53 0,-21.62 5.59,-38.83 16.82,-51.63 11.18,-12.8 26.18,-19.17 44.96,-19.17 10.98,0 20.54,2.45 28.63,7.4 8.09,4.95 14.66,12.35 19.61,22.11l0 -24.81 22.36 0zm46.14 131.49l0 -222.69 22.95 0 0 222.69 -22.95 0z"/>
  </g>
  <g id="_2088698329728">
   <g style="clip-path:url(#id1)">
    <image x="310.11" y="266.89" width="660.64" height="279.83" xlink:href="logos_Images\logos_ImgID2.png"/>
   </g>
  </g>
  <g id="_2088698300976">
   <polygon class="fil4" points="682.37,362.73 707.69,373.22 733,383.7 743.48,409.01 753.96,434.33 743.48,459.64 733,484.95 707.69,495.43 682.37,505.92 657.06,495.43 631.75,484.95 621.27,459.64 610.78,434.33 621.27,409.01 631.75,383.7 657.06,373.22 "/>
   <g>
    <polygon class="fil3" points="876.36,436.98 902.34,371.07 938.45,371.07 878.44,514.43 841.33,427.71 804.2,514.41 744.04,371.07 779.93,371.07 805.72,437.03 835.32,367.03 847.21,367.03 "/>
    <path class="fil3" d="M515.17 378.14c2.43,-1.91 5.04,-3.61 7.84,-5.06 8.27,-4.29 17.4,-6.04 26.67,-6.04 13.12,0 25.95,3.18 35.69,12.4 9.63,9.11 13.29,21.28 13.29,34.27l0 83.33 -32.89 0 0 -72.99c0,-6.81 -0.9,-15.72 -5.57,-21.11 -4.25,-4.9 -11.08,-6.05 -17.25,-6.05 -4.49,0 -8.92,0.74 -13.03,2.58 -3.67,1.64 -6.8,3.91 -9.33,7.03 -1.83,2.26 -3.09,4.88 -3.85,7.68 -1.34,4.91 -1.32,12.89 -1.32,17.97l0 64.87 -32.38 0 0 -125.96 32.13 0 0 7.07z"/>
    <path class="fil3" d="M430.23 384.25c11.45,4.88 21.96,11.93 29.3,22.15 7.07,9.85 10.19,21.2 10.19,33.28 0,17.21 -5.3,32.75 -17.88,44.83 -12.8,12.29 -29.08,17.06 -46.53,17.06 -14.4,0 -28.13,-3.45 -39.72,-12.23 -11.49,-8.7 -18.36,-20.75 -21.88,-34.58l-1.32 -5.18 31.66 -15.66 1.94 8.03c1.89,7.78 5.15,16 11.12,21.57 5.11,4.77 11.25,6.67 18.19,6.67 8.04,0 15.64,-1.93 21.65,-7.52 5.62,-5.22 7.86,-11.78 7.86,-19.38 0,-6.33 -1.69,-11.96 -5.59,-16.96 -4.62,-5.94 -11.62,-10.11 -18.36,-13.07l-21.94 -9.37c-11.24,-4.8 -22.09,-11.53 -29.48,-21.47 -7.06,-9.48 -10.13,-20.51 -10.13,-32.28 0,-14.65 5.52,-27.08 16.54,-36.75 11.52,-10.1 25.66,-14.21 40.84,-14.21 11.01,0 21.85,2.22 31.44,7.79 9.42,5.47 16.36,13.43 21.15,23.19l2.6 5.3 -28.57 18.21 -3.44 -6.01c-2.88,-5.04 -6.67,-10.07 -11.52,-13.38 -4.01,-2.73 -8.42,-3.98 -13.27,-3.98 -5.79,0 -11,1.51 -15.23,5.56 -4.02,3.86 -5.66,8.53 -5.66,14.07 0,4.69 1.37,8.76 4.38,12.36 3.95,4.71 10.39,8.2 15.93,10.64l25.7 11.32z"/>
    <polygon class="fil2" points="842.81,373.64 876.52,454.56 906.83,377.67 928.53,377.67 878.37,497.48 841.34,410.93 804.26,497.48 753.98,377.67 775.42,377.67 805.48,454.56 839.7,373.64 "/>
    <path class="fil2" d="M489.64 490.42l0 -112.75 18.92 0 0 17.4c4.83,-7.23 10.68,-12.61 17.49,-16.14 6.81,-3.53 14.71,-5.3 23.63,-5.3 13.33,0 23.71,3.53 31.15,10.59 7.48,7.06 11.22,16.9 11.22,29.47l0 76.72 -19.67 0 0 -66.38c0,-11.43 -2.4,-19.88 -7.19,-25.43 -4.83,-5.55 -12.23,-8.32 -22.24,-8.32 -5.76,0 -11.01,1.05 -15.72,3.15 -4.71,2.1 -8.62,5.04 -11.77,8.91 -2.35,2.94 -4.08,6.35 -5.09,10.09 -1.05,3.78 -1.55,10.34 -1.55,19.72l0 58.27 -19.17 0z"/>
    <path class="fil2" d="M427.63 390.33c11.73,5 20.6,11.64 26.53,19.93 5.97,8.28 8.95,18.12 8.95,29.43 0,16.56 -5.3,29.93 -15.85,40.06 -10.55,10.13 -24.51,15.22 -41.96,15.22 -14.21,0 -26.11,-3.61 -35.73,-10.89 -9.59,-7.27 -16.06,-17.57 -19.46,-30.94l19.46 -9.63c2.65,10.93 6.98,19.21 13.03,24.85 6.01,5.63 13.58,8.45 22.7,8.45 10.76,0 19.46,-3.11 26.15,-9.29 6.64,-6.22 9.96,-14.29 9.96,-24.21 0,-8.07 -2.31,-15.05 -6.98,-21.02 -4.62,-5.97 -11.6,-10.97 -20.98,-15.09l-21.94 -9.37c-11.98,-5 -20.94,-11.43 -26.78,-19.34 -5.89,-7.86 -8.83,-17.32 -8.83,-28.33 0,-12.82 4.75,-23.42 14.29,-31.78 9.54,-8.37 21.69,-12.57 36.49,-12.57 10.8,0 20.22,2.31 28.12,6.89 7.95,4.62 14.13,11.39 18.54,20.39l-17.74 11.31c-3.99,-6.98 -8.53,-12.15 -13.54,-15.55 -5,-3.4 -10.68,-5.13 -16.98,-5.13 -8.07,0 -14.67,2.48 -19.8,7.4 -5.13,4.92 -7.69,11.18 -7.69,18.83 0,6.39 1.98,11.94 5.93,16.61 3.91,4.71 10.05,8.83 18.33,12.44l25.77 11.35z"/>
    <g>
     <path class="fil5 str2" d="M682.38 362.59l25.36 10.51 25.36 10.51 10.51 25.36 10.51 25.36 -10.51 25.36 -10.51 25.36 -25.36 10.51 -25.36 10.51 -25.36 -10.51 -25.36 -10.51 -10.51 -25.36 -10.51 -25.36 10.51 -25.36 10.51 -25.36 25.36 -10.51 25.36 -10.51zm0 0l0 143.48 -71.74 -71.74 122.46 -50.73 -101.45 101.45 101.45 0 -101.45 -101.45 122.46 50.73 -71.74 71.74 -50.73 -122.46 101.45 0 -50.73 122.46m-71.74 -71.74l143.48 0"/>
     <g>
      <g>
       <circle class="fil3 str2" cx="682.38" cy="362.59" r="2.79"/>
       <circle class="fil3 str2" cx="733.1" cy="383.6" r="2.79"/>
       <circle class="fil3 str2" cx="754.12" cy="434.33" r="2.79"/>
       <circle class="fil3 str2" cx="733.1" cy="485.06" r="2.79"/>
       <circle class="fil3 str2" cx="610.64" cy="434.33" r="2.79"/>
       <circle class="fil3 str2" cx="631.65" cy="485.06" r="2.79"/>
       <circle class="fil3 str2" cx="682.38" cy="506.07" r="2.79"/>
       <circle class="fil3 str2" cx="631.65" cy="383.6" r="2.79"/>
      </g>
      <g>
       <circle class="fil3 str2" cx="682.38" cy="434.33" r="3.43"/>
       <circle class="fil3 str2" cx="682.38" cy="404.61" r="2.69"/>
       <circle class="fil3 str2" cx="682.38" cy="484.53" r="2.69"/>
       <circle class="fil3 str2" cx="682.38" cy="383.6" r="2.39"/>
       <circle class="fil3 str2" cx="652.66" cy="434.33" r="1.99"/>
       <circle class="fil3 str2" cx="712.09" cy="434.33" r="1.99"/>
       <circle class="fil3 str2" cx="661.13" cy="455.46" r="1.99"/>
       <circle class="fil3 str2" cx="703.39" cy="455.34" r="1.99"/>
       <circle class="fil3 str2" cx="661.37" cy="413.32" r="1.99"/>
       <circle class="fil3 str2" cx="703.39" cy="413.32" r="1.99"/>
      </g>
     </g>
    </g>
   </g>
  </g>
 </g>
</svg>
