<?xml version="1.0" encoding="UTF-8"?>
<!DOCTYPE svg PUBLIC "-//W3C//DTD SVG 1.1//EN" "http://www.w3.org/Graphics/SVG/1.1/DTD/svg11.dtd">
<!-- Creator: CorelDRAW 2020 (64-Bit) -->
<svg xmlns="http://www.w3.org/2000/svg" xml:space="preserve" width="101.845mm" height="99.3988mm" version="1.1" style="shape-rendering:geometricPrecision; text-rendering:geometricPrecision; image-rendering:optimizeQuality; fill-rule:evenodd; clip-rule:evenodd"
viewBox="0 0 663.24 647.31"
 xmlns:xlink="http://www.w3.org/1999/xlink"
 xmlns:xodm="http://www.corel.com/coreldraw/odm/2003">
 <defs>
  <style type="text/css">
   <![CDATA[
    .str0 {stroke:#3E4095;stroke-width:4.6;stroke-miterlimit:22.9256}
    .str2 {stroke:#3E4095;stroke-width:1.3;stroke-miterlimit:22.9256}
    .str1 {stroke:#373435;stroke-width:0.5;stroke-miterlimit:22.9256}
    .fil5 {fill:none}
    .fil1 {fill:none}
    .fil4 {fill:#FEFEFE}
    .fil3 {fill:#3E4095}
    .fil2 {fill:#FEFEFE;fill-rule:nonzero}
    .fil0 {fill:#3E4095}
   ]]>
  </style>
     <clipPath id="id0">
      <path d="M-0 233.91l663.24 -4 0 280.04 -663.24 4 0 -280.04z"/>
     </clipPath>
     <clipPath id="id1">
      <path d="M86.06 437.14l496.18 0 0 210.17 -496.18 0 0 -210.17z"/>
     </clipPath>
 </defs>
 <g id="Capa_x0020_1">
  <metadata id="CorelCorpID_0Corel-Layer"/>
  <g id="_2088696827504">
   <g>
    <path class="fil0" d="M334.73 299c6.22,0 11.25,5.04 11.25,11.25 0,6.21 -5.04,11.25 -11.25,11.25 -6.21,0 -11.25,-5.04 -11.25,-11.25 0,-6.22 5.04,-11.25 11.25,-11.25z"/>
    <path class="fil0" d="M412.46 384.06c4.44,0 8.04,3.6 8.04,8.04 0,4.44 -3.6,8.04 -8.04,8.04 -4.44,0 -8.04,-3.6 -8.04,-8.04 0,-4.44 3.6,-8.04 8.04,-8.04z"/>
    <path class="fil0" d="M256.36 381.14c4.44,0 8.04,3.6 8.04,8.04 0,4.44 -3.6,8.04 -8.04,8.04 -4.44,0 -8.04,-3.6 -8.04,-8.04 0,-4.44 3.6,-8.04 8.04,-8.04z"/>
    <path class="fil0" d="M257 222.46c4.44,0 8.04,3.6 8.04,8.04 0,4.44 -3.6,8.04 -8.04,8.04 -4.44,0 -8.04,-3.6 -8.04,-8.04 0,-4.44 3.6,-8.04 8.04,-8.04z"/>
    <path class="fil0" d="M334.74 191.62c4.44,0 8.04,3.6 8.04,8.04 0,4.44 -3.6,8.04 -8.04,8.04 -4.44,0 -8.04,-3.6 -8.04,-8.04 0,-4.44 3.6,-8.04 8.04,-8.04z"/>
    <path class="fil0" d="M224.67 301.32c4.44,0 8.04,3.6 8.04,8.04 0,4.44 -3.6,8.04 -8.04,8.04 -4.44,0 -8.04,-3.6 -8.04,-8.04 0,-4.44 3.6,-8.04 8.04,-8.04z"/>
    <path class="fil0" d="M444.73 305.49c4.44,0 8.04,3.6 8.04,8.04 0,4.44 -3.6,8.04 -8.04,8.04 -4.44,0 -8.04,-3.6 -8.04,-8.04 0,-4.44 3.6,-8.04 8.04,-8.04z"/>
    <path class="fil0" d="M412.48 225.84c4.44,0 8.04,3.6 8.04,8.04 0,4.44 -3.6,8.04 -8.04,8.04 -4.44,0 -8.04,-3.6 -8.04,-8.04 0,-4.44 3.6,-8.04 8.04,-8.04z"/>
    <path class="fil0" d="M334.72 415.38c4.44,0 8.04,3.6 8.04,8.04 0,4.44 -3.6,8.04 -8.04,8.04 -4.44,0 -8.04,-3.6 -8.04,-8.04 0,-4.44 3.6,-8.04 8.04,-8.04z"/>
    <path class="fil0" d="M155.96 379.38c4.44,0 8.04,3.6 8.04,8.04 0,4.44 -3.6,8.04 -8.04,8.04 -4.44,0 -8.04,-3.6 -8.04,-8.04 0,-4.44 3.6,-8.04 8.04,-8.04z"/>
    <path class="fil0" d="M263.36 486.81c4.44,0 8.04,3.6 8.04,8.04 0,4.44 -3.6,8.04 -8.04,8.04 -4.44,0 -8.04,-3.6 -8.04,-8.04 0,-4.44 3.6,-8.04 8.04,-8.04z"/>
    <path class="fil0" d="M412.56 486.86c4.44,0 8.04,3.6 8.04,8.04 0,4.44 -3.6,8.04 -8.04,8.04 -4.44,0 -8.04,-3.6 -8.04,-8.04 0,-4.44 3.6,-8.04 8.04,-8.04z"/>
    <path class="fil0" d="M516.17 379.5c4.44,0 8.04,3.6 8.04,8.04 0,4.44 -3.6,8.04 -8.04,8.04 -4.44,0 -8.04,-3.6 -8.04,-8.04 0,-4.44 3.6,-8.04 8.04,-8.04z"/>
    <path class="fil0" d="M513.49 227.62c4.44,0 8.04,3.6 8.04,8.04 0,4.44 -3.6,8.04 -8.04,8.04 -4.44,0 -8.04,-3.6 -8.04,-8.04 0,-4.44 3.6,-8.04 8.04,-8.04z"/>
    <path class="fil0" d="M406.1 120.19c4.44,0 8.04,3.6 8.04,8.04 0,4.44 -3.6,8.04 -8.04,8.04 -4.44,0 -8.04,-3.6 -8.04,-8.04 0,-4.44 3.6,-8.04 8.04,-8.04z"/>
    <path class="fil0" d="M256.9 120.14c4.44,0 8.04,3.6 8.04,8.04 0,4.44 -3.6,8.04 -8.04,8.04 -4.44,0 -8.04,-3.6 -8.04,-8.04 0,-4.44 3.6,-8.04 8.04,-8.04z"/>
    <path class="fil0" d="M153.29 227.5c4.44,0 8.04,3.6 8.04,8.04 0,4.44 -3.6,8.04 -8.04,8.04 -4.44,0 -8.04,-3.6 -8.04,-8.04 0,-4.44 3.6,-8.04 8.04,-8.04z"/>
    <path class="fil0" d="M149.22 302.4c3.11,0 5.63,2.52 5.63,5.63 0,3.11 -2.52,5.63 -5.63,5.63 -3.11,0 -5.63,-2.52 -5.63,-5.63 0,-3.11 2.52,-5.63 5.63,-5.63z"/>
    <path class="fil0" d="M88.73 301.25c3.11,0 5.63,2.52 5.63,5.63 0,3.11 -2.52,5.63 -5.63,5.63 -3.11,0 -5.63,-2.52 -5.63,-5.63 0,-3.11 2.52,-5.63 5.63,-5.63z"/>
    <path class="fil0" d="M206.82 172.81c3.11,0 5.63,2.52 5.63,5.63 0,3.11 -2.52,5.63 -5.63,5.63 -3.11,0 -5.63,-2.52 -5.63,-5.63 0,-3.11 2.52,-5.63 5.63,-5.63z"/>
    <path class="fil0" d="M165.02 129.42c3.11,0 5.63,2.52 5.63,5.63 0,3.11 -2.52,5.63 -5.63,5.63 -3.11,0 -5.63,-2.52 -5.63,-5.63 0,-3.11 2.52,-5.63 5.63,-5.63z"/>
    <path class="fil0" d="M334.08 120.46c3.11,0 5.63,2.52 5.63,5.63 0,3.11 -2.52,5.63 -5.63,5.63 -3.11,0 -5.63,-2.52 -5.63,-5.63 0,-3.11 2.52,-5.63 5.63,-5.63z"/>
    <path class="fil0" d="M334.08 59.31c3.11,0 5.63,2.52 5.63,5.63 0,3.11 -2.52,5.63 -5.63,5.63 -3.11,0 -5.63,-2.52 -5.63,-5.63 0,-3.11 2.52,-5.63 5.63,-5.63z"/>
    <path class="fil0" d="M463.89 175.36c3.11,0 5.63,2.52 5.63,5.63 0,3.11 -2.52,5.63 -5.63,5.63 -3.11,0 -5.63,-2.52 -5.63,-5.63 0,-3.11 2.52,-5.63 5.63,-5.63z"/>
    <path class="fil0" d="M507.13 132.12c3.11,0 5.63,2.52 5.63,5.63 0,3.11 -2.52,5.63 -5.63,5.63 -3.11,0 -5.63,-2.52 -5.63,-5.63 0,-3.11 2.52,-5.63 5.63,-5.63z"/>
    <path class="fil0" d="M518.55 309.26c3.11,0 5.63,2.52 5.63,5.63 0,3.11 -2.52,5.63 -5.63,5.63 -3.11,0 -5.63,-2.52 -5.63,-5.63 0,-3.11 2.52,-5.63 5.63,-5.63z"/>
    <path class="fil0" d="M580.22 310.49c3.11,0 5.63,2.52 5.63,5.63 0,3.11 -2.52,5.63 -5.63,5.63 -3.11,0 -5.63,-2.52 -5.63,-5.63 0,-3.11 2.52,-5.63 5.63,-5.63z"/>
    <path class="fil0" d="M461.75 437.44c3.11,0 5.63,2.52 5.63,5.63 0,3.11 -2.52,5.63 -5.63,5.63 -3.11,0 -5.63,-2.52 -5.63,-5.63 0,-3.11 2.52,-5.63 5.63,-5.63z"/>
    <path class="fil0" d="M334.06 489.86c3.11,0 5.63,2.52 5.63,5.63 0,3.11 -2.52,5.63 -5.63,5.63 -3.11,0 -5.63,-2.52 -5.63,-5.63 0,-3.11 2.52,-5.63 5.63,-5.63z"/>
    <path class="fil0" d="M504.04 481.44c3.11,0 5.63,2.52 5.63,5.63 0,3.11 -2.52,5.63 -5.63,5.63 -3.11,0 -5.63,-2.52 -5.63,-5.63 0,-3.11 2.52,-5.63 5.63,-5.63z"/>
    <path class="fil0" d="M334.06 551.01c3.11,0 5.63,2.52 5.63,5.63 0,3.11 -2.52,5.63 -5.63,5.63 -3.11,0 -5.63,-2.52 -5.63,-5.63 0,-3.11 2.52,-5.63 5.63,-5.63z"/>
    <path class="fil0" d="M204.04 435.88c3.11,0 5.63,2.52 5.63,5.63 0,3.11 -2.52,5.63 -5.63,5.63 -3.11,0 -5.63,-2.52 -5.63,-5.63 0,-3.11 2.52,-5.63 5.63,-5.63z"/>
    <path class="fil0" d="M161.59 478.43c3.11,0 5.63,2.52 5.63,5.63 0,3.11 -2.52,5.63 -5.63,5.63 -3.11,0 -5.63,-2.52 -5.63,-5.63 0,-3.11 2.52,-5.63 5.63,-5.63z"/>
    <path class="fil0" d="M125.7 84.51c5.33,0 9.65,4.32 9.65,9.65 0,5.33 -4.32,9.65 -9.65,9.65 -5.33,0 -9.65,-4.32 -9.65,-9.65 0,-5.33 4.32,-9.65 9.65,-9.65z"/>
    <path class="fil0" d="M334.76 0c5.33,0 9.65,4.32 9.65,9.65 0,5.33 -4.32,9.65 -9.65,9.65 -5.33,0 -9.65,-4.32 -9.65,-9.65 0,-5.33 4.32,-9.65 9.65,-9.65z"/>
    <path class="fil0" d="M547.85 87.98c5.33,0 9.65,4.32 9.65,9.65 0,5.33 -4.32,9.65 -9.65,9.65 -5.33,0 -9.65,-4.32 -9.65,-9.65 0,-5.33 4.32,-9.65 9.65,-9.65z"/>
    <path class="fil0" d="M635.2 307.49c5.33,0 9.65,4.32 9.65,9.65 0,5.33 -4.32,9.65 -9.65,9.65 -5.33,0 -9.65,-4.32 -9.65,-9.65 0,-5.33 4.32,-9.65 9.65,-9.65z"/>
    <path class="fil0" d="M542.73 517.56c5.33,0 9.65,4.32 9.65,9.65 0,5.33 -4.32,9.65 -9.65,9.65 -5.33,0 -9.65,-4.32 -9.65,-9.65 0,-5.33 4.32,-9.65 9.65,-9.65z"/>
    <path class="fil0" d="M334.05 601.21c5.33,0 9.65,4.32 9.65,9.65 0,5.33 -4.32,9.65 -9.65,9.65 -5.33,0 -9.65,-4.32 -9.65,-9.65 0,-5.33 4.32,-9.65 9.65,-9.65z"/>
    <path class="fil0" d="M122.78 513.14c5.33,0 9.65,4.32 9.65,9.65 0,5.33 -4.32,9.65 -9.65,9.65 -5.33,0 -9.65,-4.32 -9.65,-9.65 0,-5.33 4.32,-9.65 9.65,-9.65z"/>
    <path class="fil0" d="M34.1 296.1c5.33,0 9.65,4.32 9.65,9.65 0,5.33 -4.32,9.65 -9.65,9.65 -5.33,0 -9.65,-4.32 -9.65,-9.65 0,-5.33 4.32,-9.65 9.65,-9.65z"/>
    <g>
     <polygon class="fil1 str0" points="256.24,128.17 334.09,199.66 405.45,128.22 411.83,233.88 512.84,235.66 444.02,313.59 515.52,387.54 411.81,392.1 411.91,494.9 334.07,423.42 262.71,494.85 256.33,389.19 155.31,387.42 224.14,309.48 152.63,235.54 256.35,230.97 "/>
     <g>
      <line class="fil1 str0" x1="297.46" y1="590.11" x2="334.06" y2= "553.38" />
      <line class="fil1 str0" x1="333.99" y1="553.26" x2="370.58" y2= "589.98" />
      <line class="fil1 str0" x1="278.91" y1="547.57" x2="334.06" y2= "492.23" />
      <line class="fil1 str0" x1="333.95" y1="492.04" x2="389.1" y2= "547.39" />
      <line class="fil1 str0" x1="505.79" y1="139.19" x2="505.88" y2= "87.34" />
      <g>
       <line class="fil1 str0" x1="297.48" y1="31.47" x2="334.08" y2= "68.19" />
       <line class="fil1 str0" x1="334" y1="68.32" x2="370.6" y2= "31.6" />
       <line class="fil1 str0" x1="278.93" y1="74" x2="334.08" y2= "129.35" />
       <line class="fil1 str0" x1="333.97" y1="129.53" x2="389.12" y2= "74.19" />
       <line class="fil1 str0" x1="557.67" y1="138.96" x2="505.83" y2= "139.05" />
       <line class="fil1 str0" x1="540.71" y1="182.15" x2="462.58" y2= "182.29" />
       <line class="fil1 str0" x1="462.53" y1="182.5" x2="462.67" y2= "104.37" />
       <g>
        <line class="fil1 str0" x1="334.11" y1="9.65" x2="334.05" y2= "610.86" />
        <g>
         <line class="fil1 str0" x1="162.67" y1="533.98" x2="162.76" y2= "482.14" />
         <g>
          <g>
           <g>
            <line class="fil1 str0" x1="33.44" y1="305.74" x2="634.55" y2= "317.14" />
            <line class="fil1 str0" x1="54.58" y1="342.77" x2="91.98" y2= "306.88" />
            <line class="fil1 str0" x1="92.1" y1="306.95" x2="56.08" y2= "269.67" />
            <line class="fil1 str0" x1="96.75" y1="362.13" x2="153.12" y2= "308.03" />
            <line class="fil1 str0" x1="153.31" y1="308.14" x2="99.02" y2= "251.96" />
            <line class="fil1 str0" x1="613.11" y1="353.32" x2="577.09" y2= "316.04" />
            <line class="fil1 str0" x1="576.96" y1="316.11" x2="614.37" y2= "280.22" />
            <line class="fil1 str0" x1="570.24" y1="371.07" x2="515.94" y2= "314.89" />
            <line class="fil1 str0" x1="515.75" y1="314.99" x2="572.13" y2= "260.9" />
           </g>
           <g>
            <line class="fil1 str0" x1="125.04" y1="94.16" x2="542.08" y2= "527.21" />
            <line class="fil1 str0" x1="113.8" y1="135.29" x2="165.64" y2= "136.35" />
            <line class="fil1 str0" x1="165.67" y1="136.49" x2="166.55" y2= "84.65" />
            <line class="fil1 str0" x1="129.95" y1="178.79" x2="208.06" y2= "180.39" />
            <line class="fil1 str0" x1="208.11" y1="180.6" x2="209.44" y2= "102.49" />
            <line class="fil1 str0" x1="501.34" y1="537.64" x2="502.22" y2= "485.81" />
            <line class="fil1 str0" x1="502.08" y1="485.77" x2="553.91" y2= "486.83" />
            <line class="fil1 str0" x1="458.47" y1="519.88" x2="459.8" y2= "441.76" />
            <line class="fil1 str0" x1="459.59" y1="441.7" x2="537.7" y2= "443.3" />
           </g>
           <line class="fil1 str0" x1="547.2" y1="97.62" x2="122.13" y2= "522.79" />
          </g>
          <line class="fil1 str0" x1="162.9" y1="482.1" x2="111.05" y2= "482.2" />
         </g>
         <line class="fil1 str0" x1="205.86" y1="517.03" x2="206" y2= "438.9" />
         <line class="fil1 str0" x1="206.21" y1="438.84" x2="128.08" y2= "438.98" />
        </g>
       </g>
      </g>
     </g>
    </g>
   </g>
   <g>
    <path class="fil2" d="M326.23 380.69c0,-11.08 -3.02,-20 -9.06,-26.77 -6.08,-6.74 -13.99,-10.13 -23.86,-10.13 -10.13,0 -18.04,3.13 -23.75,9.39 -5.67,6.26 -8.51,14.99 -8.51,26.22 0,11.93 2.87,21.14 8.58,27.58 5.71,6.48 13.81,9.72 24.34,9.72 10.05,0 17.97,-3.17 23.68,-9.54 5.71,-6.37 8.58,-15.21 8.58,-26.48z"/>
    <path class="fil2" d="M563.31 381.04c0,-11.16 -3.06,-20.14 -9.13,-26.92 -6.08,-6.81 -13.99,-10.2 -23.79,-10.2 -10.13,0 -18.04,3.13 -23.71,9.39 -5.71,6.26 -8.54,14.99 -8.54,26.22 0,11.93 2.87,21.14 8.58,27.58 5.71,6.48 13.85,9.72 24.34,9.72 10.05,0 17.97,-3.13 23.68,-9.43 5.71,-6.3 8.58,-15.1 8.58,-26.37z"/>
    <path class="fil2 str1" d="M57.98 411.93l11.97 0c19.41,0 32.85,-0.85 40.32,-2.54 7.48,-1.69 13.7,-4.57 18.67,-8.69 6.48,-5.38 11.42,-12.34 14.77,-20.84 3.39,-8.54 5.08,-18.3 5.08,-29.31 0,-11.05 -1.66,-20.77 -5.01,-29.16 -3.35,-8.36 -8.29,-15.28 -14.84,-20.77 -4.97,-4.16 -11.27,-7.11 -18.93,-8.87 -7.66,-1.77 -20.99,-2.65 -40.06,-2.65l-11.97 0 0 122.84z"/>
   </g>
   <path class="fil3" d="M32.61 435.78l0 -170.17 36.44 0c9.68,0 19.44,0.17 29.1,0.86 6.49,0.46 13.43,1.14 19.75,2.71 9.59,2.37 18.55,6.43 26.38,12.47 10.02,7.73 17.49,17.56 22.5,29.19 5.43,12.61 7.49,26.31 7.49,39.97 0,13.61 -2.07,27.21 -7.45,39.78 -4.99,11.65 -12.49,21.46 -22.56,29.17 -7.7,5.9 -16.36,10.03 -25.76,12.44 -5.79,1.49 -11.98,2.23 -17.93,2.72 -8.22,0.67 -16.52,0.86 -24.76,0.86l-43.22 0zm155.36 -152.44c0,-5 1.86,-9.47 5.4,-13 3.58,-3.58 8.1,-5.4 13.15,-5.4 5.04,0 9.5,1.91 13.04,5.5 3.53,3.59 5.36,8.08 5.36,13.12 0,4.99 -1.83,9.44 -5.36,12.97 -3.54,3.54 -8.03,5.36 -13.04,5.36 -5.03,0 -9.53,-1.79 -13.12,-5.33 -3.62,-3.57 -5.43,-8.15 -5.43,-13.22zm3.98 152.44l0 -110.96 29.21 0 0 110.96 -29.21 0zm72.09 -3.36c-4.52,-2.54 -8.68,-5.87 -12.42,-10.04 -10.62,-11.82 -14.56,-26.81 -14.56,-42.45 0,-15.5 3.67,-30.61 14.17,-42.42 10.06,-11.31 23.31,-16.22 38.33,-16.22 8.74,0 17.19,1.9 24.72,6.43 1.93,1.16 3.74,2.46 5.41,3.88l0 -6.78 28.99 0 0 103.13c0,7.5 -0.19,17.55 -2.46,24.74 -1.72,5.45 -4.57,10.29 -8.44,14.49 -5.35,5.8 -11.88,9.98 -19.28,12.71 -7.98,2.94 -16.54,4.06 -25.01,4.06 -13.78,0 -27.94,-2.73 -38.87,-11.65 -10.46,-8.53 -14.96,-20.35 -15.35,-33.6l-0.19 -6.28 24.96 0zm56.09 -4.21c-1.77,1.51 -3.67,2.89 -5.7,4.14 -7.32,4.48 -15.46,6.53 -24.03,6.53 -7.1,0 -13.78,-1.11 -19.94,-3.45l0 4.38c0,4.99 1.34,9.26 5.33,12.41 4.86,3.83 11.92,4.73 17.91,4.73 4.96,0 10.25,-0.64 14.81,-2.72 3.51,-1.61 6.26,-3.98 8.2,-7.31l0.04 -0.08 0.05 -0.08c1.23,-1.97 1.99,-4.25 2.44,-6.51 0.75,-3.76 0.86,-8.15 0.88,-12.03zm47.47 -144.86c0,-5 1.86,-9.47 5.4,-13 3.58,-3.58 8.1,-5.4 13.15,-5.4 5.04,0 9.5,1.91 13.04,5.5 3.54,3.59 5.36,8.08 5.36,13.12 0,4.99 -1.83,9.44 -5.36,12.97 -3.54,3.54 -8.03,5.36 -13.04,5.36 -5.03,0 -9.53,-1.79 -13.12,-5.33 -3.62,-3.57 -5.43,-8.15 -5.43,-13.22zm3.98 152.44l0 -110.96 29.21 0 0 110.96 -29.21 0zm55.27 -84.84l-18.12 0 0 -26.12 18.12 0 0 -39.77 29.43 0 0 39.77 18.12 0 0 26.12 -18.12 0 0 84.84 -29.43 0 0 -84.84zm130.1 78.17c-1.82,1.57 -3.78,3.01 -5.88,4.3 -7.28,4.47 -15.31,6.57 -23.85,6.57 -15.26,0 -28.62,-5.18 -38.81,-16.67 -10.61,-11.96 -14.54,-27.01 -14.54,-42.75 0,-15.6 3.67,-30.83 14.14,-42.79 10.02,-11.44 23.26,-16.48 38.36,-16.48 8.73,0 17.19,1.87 24.69,6.46 1.94,1.19 3.76,2.52 5.44,3.98l0 -6.9 28.99 0 0 110.96 -28.55 0 0 -6.68zm51 6.68l0 -179.45 29.43 0 0 179.45 -29.43 0zm-544.14 -29.87l5.87 0c8.07,0 16.2,-0.12 24.25,-0.62 4.78,-0.3 10.04,-0.71 14.72,-1.77 5.83,-1.32 11.48,-3.59 16.12,-7.44 5.95,-4.94 10.16,-11.22 12.99,-18.39 3.39,-8.59 4.65,-17.87 4.65,-27.07 0,-9.09 -1.18,-18.41 -4.57,-26.9 -2.88,-7.19 -7.15,-13.38 -13.09,-18.36 -4.69,-3.93 -10.47,-6.24 -16.38,-7.61 -4.71,-1.09 -9.97,-1.53 -14.78,-1.85 -7.94,-0.53 -15.95,-0.65 -23.91,-0.65l-5.87 0 0 110.65zm256.32 -25.27c0,-8.3 -1.84,-16.39 -7.5,-22.7 -5.16,-5.76 -11.65,-8.1 -19.32,-8.1 -7.34,0 -14.19,1.83 -19.24,7.39 -5.44,5.98 -6.92,14.29 -6.92,22.12 0,8.18 1.46,17.21 7.05,23.54 5.13,5.81 12.21,7.66 19.77,7.66 7.37,0 14.12,-1.91 19.13,-7.51 5.47,-6.1 7.02,-14.45 7.02,-22.41zm236.82 0.66c0,-8.36 -1.89,-16.49 -7.58,-22.85 -5.16,-5.77 -11.58,-8.17 -19.24,-8.17 -7.34,0 -14.16,1.84 -19.2,7.39 -5.45,6 -6.96,14.26 -6.96,22.12 0,8.17 1.46,17.21 7.05,23.54 5.12,5.8 12.23,7.66 19.77,7.66 7.34,0 14.12,-1.87 19.16,-7.42 5.47,-6.03 7,-14.37 7,-22.27z"/>
   <g>
    <g style="clip-path:url(#id0)">
     <image x="-0" y="229.92" width="663.24" height="284.04" xlink:href="logo_Images\logo_ImgID1.png"/>
    </g>
   </g>
   <path class="fil2" d="M57.06 412l11.97 0c19.41,0 32.85,-0.85 40.32,-2.54 7.48,-1.69 13.7,-4.57 18.67,-8.69 6.48,-5.38 11.42,-12.34 14.77,-20.84 3.39,-8.54 5.08,-18.3 5.08,-29.31 0,-11.05 -1.66,-20.77 -5.01,-29.16 -3.35,-8.36 -8.29,-15.28 -14.84,-20.77 -4.97,-4.16 -11.27,-7.11 -18.93,-8.87 -7.66,-1.77 -20.99,-2.65 -40.06,-2.65l-11.97 0 0 122.84zm-19 17.68l0 -157.97 30.34 0c22.43,0 38.22,1.14 47.39,3.39 9.17,2.28 17.23,6.08 24.12,11.38 9.06,7 15.94,15.91 20.62,26.77 4.68,10.86 7,23.38 7,37.56 0,14.1 -2.32,26.55 -6.96,37.38 -4.64,10.83 -11.53,19.74 -20.66,26.73 -6.92,5.3 -14.77,9.1 -23.57,11.38 -8.84,2.25 -22.54,3.39 -41.17,3.39l-6.78 0 -30.34 0zm155.36 -146.34c0,-3.35 1.22,-6.26 3.61,-8.69 2.43,-2.39 5.38,-3.61 8.84,-3.61 3.35,0 6.26,1.22 8.69,3.68 2.39,2.43 3.61,5.38 3.61,8.84 0,3.39 -1.18,6.3 -3.57,8.65 -2.36,2.39 -5.3,3.57 -8.73,3.57 -3.46,0 -6.41,-1.18 -8.84,-3.57 -2.39,-2.36 -3.61,-5.34 -3.61,-8.87zm3.98 146.34l0 -98.76 17.01 0 0 98.76 -17.01 0zm128.18 -49.05c0,-11.08 -3.02,-20 -9.06,-26.77 -6.08,-6.74 -13.99,-10.13 -23.86,-10.13 -10.13,0 -18.04,3.13 -23.75,9.39 -5.67,6.26 -8.51,14.99 -8.51,26.22 0,11.93 2.87,21.14 8.58,27.58 5.71,6.48 13.81,9.72 24.34,9.72 10.05,0 17.97,-3.17 23.68,-9.54 5.71,-6.37 8.58,-15.21 8.58,-26.48zm16.35 -49.71l0 97.03c0,10.72 -0.74,18.34 -2.17,22.9 -1.44,4.53 -3.79,8.58 -7.11,12.19 -4.6,4.97 -10.24,8.69 -16.9,11.12 -6.63,2.47 -14.29,3.68 -22.9,3.68 -14.99,0 -26.62,-3.42 -35.02,-10.27 -8.4,-6.85 -12.74,-16.53 -13.11,-29.05l19 0 0 1.29c0,7.44 2.54,13.15 7.66,17.2 5.12,4.01 12.34,6.04 21.69,6.04 6.78,0 12.56,-1.1 17.34,-3.28 4.79,-2.21 8.43,-5.49 10.94,-9.8 1.51,-2.43 2.61,-5.3 3.24,-8.54 0.66,-3.24 0.99,-7.88 0.99,-13.92l0 -7.77 0 -8.8c-3.83,7.03 -8.84,12.41 -14.99,16.2 -6.19,3.76 -13.15,5.63 -20.84,5.63 -14.18,0 -25.59,-4.82 -34.25,-14.47 -8.65,-9.61 -13,-22.43 -13,-38.37 0,-16.13 4.2,-28.91 12.63,-38.37 8.4,-9.46 19.66,-14.18 33.77,-14.18 8.17,0 15.39,1.84 21.58,5.56 6.19,3.72 11.05,9.21 14.66,16.39l0 -18.41 16.79 0zm31.12 -47.58c0,-3.35 1.22,-6.26 3.61,-8.69 2.43,-2.39 5.38,-3.61 8.84,-3.61 3.35,0 6.26,1.22 8.69,3.68 2.39,2.43 3.61,5.38 3.61,8.84 0,3.39 -1.18,6.3 -3.57,8.65 -2.36,2.39 -5.3,3.57 -8.73,3.57 -3.46,0 -6.41,-1.18 -8.84,-3.57 -2.39,-2.36 -3.61,-5.34 -3.61,-8.87zm3.98 146.34l0 -98.76 17.01 0 0 98.76 -17.01 0zm55.27 -84.84l-18.12 0 0 -13.92 18.12 0 0 -39.77 17.23 0 0 39.77 18.12 0 0 13.92 -18.12 0 0 84.84 -17.23 0 0 -84.84zm130.1 36.46c0,-11.16 -3.06,-20.14 -9.13,-26.92 -6.08,-6.81 -13.99,-10.2 -23.79,-10.2 -10.13,0 -18.04,3.13 -23.71,9.39 -5.71,6.26 -8.54,14.99 -8.54,26.22 0,11.93 2.87,21.14 8.58,27.58 5.71,6.48 13.85,9.72 24.34,9.72 10.05,0 17.97,-3.13 23.68,-9.43 5.71,-6.3 8.58,-15.1 8.58,-26.37zm16.35 -50.37l0 98.76 -16.35 0 0 -17.9c-3.94,7.18 -9.02,12.67 -15.17,16.42 -6.15,3.79 -13.04,5.67 -20.66,5.67 -14.14,0 -25.59,-4.86 -34.25,-14.62 -8.65,-9.76 -13,-22.65 -13,-38.7 0,-16.24 4.2,-29.16 12.63,-38.78 8.4,-9.61 19.66,-14.4 33.77,-14.4 8.25,0 15.43,1.84 21.5,5.56 6.08,3.72 11.01,9.28 14.73,16.61l0 -18.63 16.79 0zm34.65 98.76l0 -167.25 17.23 0 0 167.25 -17.23 0z"/>
   <g>
    <g style="clip-path:url(#id1)">
     <image x="86.06" y="437.14" width="496.18" height="210.17" xlink:href="logo_Images\logo_ImgID2.png"/>
    </g>
   </g>
   <g>
    <polygon class="fil4" points="365.66,509.12 384.67,517 403.68,524.87 411.55,543.88 419.42,562.89 411.55,581.9 403.68,600.91 384.67,608.78 365.66,616.66 346.65,608.78 327.64,600.91 319.76,581.9 311.89,562.89 319.76,543.88 327.64,524.87 346.65,517 "/>
    <g>
     <polygon class="fil3" points="511.35,564.88 530.86,515.38 557.99,515.38 512.92,623.06 485.05,557.92 457.15,623.04 411.97,515.38 438.93,515.38 458.3,564.92 480.53,512.35 489.46,512.35 "/>
     <path class="fil3" d="M240.07 520.69c1.82,-1.44 3.78,-2.71 5.89,-3.8 6.21,-3.22 13.07,-4.54 20.03,-4.54 9.85,0 19.49,2.39 26.81,9.32 7.23,6.84 9.98,15.98 9.98,25.74l0 62.58 -24.7 0 0 -54.82c0,-5.11 -0.68,-11.81 -4.19,-15.85 -3.19,-3.68 -8.33,-4.54 -12.95,-4.54 -3.37,0 -6.7,0.56 -9.79,1.94 -2.75,1.23 -5.11,2.93 -7.01,5.28 -1.37,1.7 -2.32,3.67 -2.89,5.77 -1.01,3.69 -0.99,9.68 -0.99,13.5l0 48.72 -24.32 0 0 -94.61 24.13 0 0 5.31z"/>
     <path class="fil3" d="M176.27 525.28c8.6,3.67 16.5,8.96 22.01,16.63 5.31,7.4 7.66,15.92 7.66,25 0,12.93 -3.98,24.6 -13.43,33.67 -9.61,9.23 -21.84,12.81 -34.95,12.81 -10.81,0 -21.13,-2.59 -29.83,-9.18 -8.63,-6.53 -13.79,-15.59 -16.43,-25.97l-0.99 -3.89 23.78 -11.76 1.46 6.03c1.42,5.85 3.87,12.02 8.35,16.2 3.84,3.58 8.45,5.01 13.66,5.01 6.04,0 11.75,-1.45 16.26,-5.65 4.22,-3.92 5.9,-8.84 5.9,-14.55 0,-4.76 -1.27,-8.98 -4.2,-12.74 -3.47,-4.46 -8.73,-7.6 -13.79,-9.82l-16.48 -7.04c-8.44,-3.61 -16.59,-8.66 -22.14,-16.12 -5.3,-7.12 -7.61,-15.4 -7.61,-24.24 0,-11 4.14,-20.34 12.43,-27.6 8.66,-7.59 19.27,-10.67 30.68,-10.67 8.27,0 16.41,1.66 23.62,5.85 7.08,4.11 12.29,10.09 15.89,17.42l1.95 3.98 -21.46 13.68 -2.59 -4.52c-2.17,-3.79 -5.01,-7.56 -8.65,-10.05 -3.01,-2.05 -6.33,-2.99 -9.96,-2.99 -4.35,0 -8.26,1.13 -11.44,4.18 -3.02,2.9 -4.25,6.4 -4.25,10.56 0,3.52 1.03,6.58 3.29,9.28 2.97,3.54 7.8,6.16 11.96,7.99l19.3 8.5z"/>
     <polygon class="fil2" points="486.15,517.31 511.48,578.09 534.24,520.34 550.53,520.34 512.87,610.33 485.05,545.32 457.2,610.33 419.44,520.34 435.54,520.34 458.12,578.09 483.82,517.31 "/>
     <path class="fil2" d="M220.9 605.02l0 -84.68 14.21 0 0 13.07c3.63,-5.43 8.02,-9.47 13.13,-12.12 5.12,-2.65 11.05,-3.98 17.74,-3.98 10.01,0 17.81,2.65 23.4,7.96 5.62,5.3 8.43,12.69 8.43,22.13l0 57.62 -14.78 0 0 -49.86c0,-8.59 -1.8,-14.93 -5.4,-19.1 -3.63,-4.17 -9.19,-6.25 -16.7,-6.25 -4.33,0 -8.27,0.79 -11.81,2.37 -3.54,1.58 -6.47,3.79 -8.84,6.69 -1.77,2.21 -3.06,4.77 -3.82,7.58 -0.79,2.84 -1.17,7.77 -1.17,14.81l0 43.76 -14.4 0z"/>
     <path class="fil2" d="M174.33 529.85c8.81,3.76 15.47,8.75 19.92,14.97 4.48,6.22 6.73,13.61 6.73,22.1 0,12.44 -3.98,22.48 -11.9,30.09 -7.93,7.61 -18.41,11.43 -31.51,11.43 -10.67,0 -19.61,-2.71 -26.84,-8.18 -7.2,-5.46 -12.06,-13.2 -14.62,-23.24l14.62 -7.23c1.99,8.21 5.24,14.43 9.79,18.66 4.51,4.23 10.2,6.35 17.05,6.35 8.08,0 14.62,-2.34 19.64,-6.98 4.99,-4.67 7.48,-10.74 7.48,-18.19 0,-6.06 -1.74,-11.3 -5.24,-15.79 -3.47,-4.48 -8.71,-8.24 -15.76,-11.34l-16.48 -7.04c-9,-3.76 -15.72,-8.59 -20.11,-14.52 -4.42,-5.9 -6.63,-13.01 -6.63,-21.28 0,-9.63 3.57,-17.59 10.74,-23.87 7.17,-6.28 16.29,-9.44 27.41,-9.44 8.11,0 15.19,1.74 21.12,5.18 5.97,3.47 10.61,8.56 13.92,15.31l-13.32 8.49c-3,-5.24 -6.41,-9.12 -10.17,-11.68 -3.76,-2.56 -8.02,-3.85 -12.76,-3.85 -6.06,0 -11.02,1.86 -14.87,5.56 -3.85,3.69 -5.78,8.4 -5.78,14.15 0,4.8 1.48,8.97 4.45,12.47 2.94,3.54 7.55,6.63 13.77,9.35l19.35 8.53z"/>
     <g>
      <path class="fil5 str2" d="M365.66 509.01l19.05 7.89 19.05 7.89 7.89 19.05 7.89 19.05 -7.89 19.05 -7.89 19.05 -19.05 7.89 -19.05 7.89 -19.05 -7.89 -19.05 -7.89 -7.89 -19.05 -7.89 -19.05 7.89 -19.05 7.89 -19.05 19.05 -7.89 19.05 -7.89zm0 0l0 107.76 -53.88 -53.88 91.98 -38.1 -76.2 76.2 76.2 0 -76.2 -76.2 91.98 38.1 -53.88 53.88 -38.1 -91.98 76.2 0 -38.1 91.98m-53.88 -53.88l107.76 0"/>
      <g>
       <g>
        <circle class="fil3 str2" cx="365.66" cy="509.01" r="2.1"/>
        <circle class="fil3 str2" cx="403.76" cy="524.79" r="2.1"/>
        <circle class="fil3 str2" cx="419.54" cy="562.89" r="2.1"/>
        <circle class="fil3 str2" cx="403.76" cy="600.99" r="2.1"/>
        <circle class="fil3 str2" cx="311.78" cy="562.89" r="2.1"/>
        <circle class="fil3 str2" cx="327.56" cy="600.99" r="2.1"/>
        <circle class="fil3 str2" cx="365.66" cy="616.77" r="2.1"/>
        <circle class="fil3 str2" cx="327.56" cy="524.79" r="2.1"/>
       </g>
       <g>
        <circle class="fil3 str2" cx="365.66" cy="562.89" r="2.57"/>
        <circle class="fil3 str2" cx="365.66" cy="540.58" r="2.02"/>
        <circle class="fil3 str2" cx="365.66" cy="600.6" r="2.02"/>
        <circle class="fil3 str2" cx="365.66" cy="524.79" r="1.8"/>
        <circle class="fil3 str2" cx="343.34" cy="562.89" r="1.5"/>
        <circle class="fil3 str2" cx="387.98" cy="562.89" r="1.5"/>
        <circle class="fil3 str2" cx="349.7" cy="578.77" r="1.5"/>
        <circle class="fil3 str2" cx="381.44" cy="578.67" r="1.5"/>
        <circle class="fil3 str2" cx="349.88" cy="547.11" r="1.5"/>
        <circle class="fil3 str2" cx="381.44" cy="547.11" r="1.5"/>
       </g>
      </g>
     </g>
    </g>
   </g>
  </g>
 </g>
</svg>
