<?xml version="1.0" encoding="UTF-8"?>
<!DOCTYPE svg PUBLIC "-//W3C//DTD SVG 1.1//EN" "http://www.w3.org/Graphics/SVG/1.1/DTD/svg11.dtd">
<!-- Creator: CorelDRAW 2020 (64-Bit) -->
<svg xmlns="http://www.w3.org/2000/svg" xml:space="preserve" width="36.1589mm" height="15.5949mm" version="1.1" style="shape-rendering:geometricPrecision; text-rendering:geometricPrecision; image-rendering:optimizeQuality; fill-rule:evenodd; clip-rule:evenodd"
viewBox="0 0 1866.36 804.94"
 xmlns:xlink="http://www.w3.org/1999/xlink"
 xmlns:xodm="http://www.corel.com/coreldraw/odm/2003">
 <defs>
  <style type="text/css">
   <![CDATA[
    .str0 {stroke:#3E4095;stroke-width:5.46;stroke-miterlimit:22.9256}
    .fil1 {fill:none}
    .fil2 {fill:#3E4095}
    .fil3 {fill:#3E4095}
    .fil0 {fill:#3E4095;fill-rule:nonzero}
   ]]>
  </style>
    <clipPath id="id0">
     <path d="M-0 0l1866.36 0 0 804.94 -1866.36 0 0 -804.94z"/>
    </clipPath>
 </defs>
 <g id="Capa_x0020_1">
  <metadata id="CorelCorpID_0Corel-Layer"/>
  <g id="_2088614003120">
   <g style="clip-path:url(#id0)">
    <image x="-0" y="0" width="1866.36" height="804.94" xlink:href="logo2_Images\logo2_ImgID1.png"/>
   </g>
  </g>
  <g id="_2088614004176">
   <path class="fil0" d="M106.43 361.79l0 -246.33c0,-4.44 -1.02,-7.79 -2.99,-10.05 -1.97,-2.26 -5.46,-4.15 -10.56,-5.53l0 -6.99 162.5 0c35.61,0 62.93,4.08 82.01,12.17 27.39,11.8 47.56,31.32 60.67,58.49 10.42,21.42 15.59,46.4 15.59,74.95 0,50.26 -15.44,88.57 -46.32,114.94 -12.97,11.07 -28.11,19.01 -45.52,23.82 -17.33,4.73 -39.48,7.14 -66.42,7.14l-162.5 0 0 -6.99c5.1,-1.46 8.59,-3.28 10.56,-5.53 1.97,-2.26 2.99,-5.61 2.99,-10.05zm63.8 -25.49l79.97 0c25.49,0 44.65,-3.5 57.47,-10.49 27.53,-14.93 41.3,-44 41.3,-87.33 0,-31.24 -7.43,-55.28 -22.22,-71.88 -8.3,-9.25 -18.28,-15.88 -29.94,-19.74 -11.73,-3.93 -27.24,-5.9 -46.61,-5.9l-79.97 0 0 195.35zm354.56 -169.12l0 195.12c0,4.37 1.02,7.72 2.99,10.13 1.97,2.33 5.46,4.29 10.56,5.83l0 6.12 -84.34 0 0 -6.12c4.96,-1.31 8.45,-3.13 10.49,-5.54 2.04,-2.4 3.06,-5.83 3.06,-10.27l0 -195.2c0,-4.44 -1.02,-7.79 -2.99,-10.05 -1.97,-2.26 -5.46,-4.22 -10.56,-5.76l0 -6.12 84.34 0 0 6.12c-5.1,1.39 -8.59,3.28 -10.56,5.61 -1.97,2.41 -2.99,5.76 -2.99,10.13zm271.17 124.98l-54.34 0c-4.59,0 -8.01,1.02 -10.34,2.99 -2.41,1.97 -4.22,5.46 -5.68,10.56l-5.68 0 0 -63.37 5.68 0c1.46,5.03 3.28,8.52 5.68,10.56 2.33,1.97 5.76,2.99 10.34,2.99l113.77 0 0 6.12c-4.96,1.46 -8.45,3.5 -10.49,6.19 -2.04,2.69 -3.06,6.56 -3.06,11.58l0 50.55c0,4.37 1.02,7.79 3.06,10.27 2.04,2.41 5.53,4.3 10.49,5.76l0 4.81c-46.11,25.64 -91.99,38.46 -137.81,38.46 -39.55,0 -71.52,-9.32 -95.99,-27.97 -13.26,-10.27 -23.89,-22.94 -32.05,-38.02 -9.54,-17.99 -14.28,-37.14 -14.28,-57.46 0,-28.26 8.67,-53.32 26,-75.24 27.02,-33.87 66.93,-50.84 119.81,-50.84 23.16,0 49.6,5.17 79.32,15.59 11.8,4.01 18.72,6.04 20.68,6.04 2.41,0 5.24,-1.17 8.52,-3.49l5.24 2.84 -28.19 60.16 -5.1 -2.55c0,-0.58 0,-1.02 0,-1.31 0,-5.24 -5.32,-10.63 -15.8,-16.24 -19.52,-10.42 -40.5,-15.58 -62.86,-15.58 -25.78,0 -46.9,7.06 -63.44,21.12 -17.41,14.78 -26.08,34.67 -26.08,59.72 0,23.45 7.87,42.17 23.67,56.23 16.24,14.35 38.96,21.56 68.25,21.56 27.9,0 51.42,-5.17 70.65,-15.59l0 -36.42zm169.85 -124.98l0 195.12c0,4.37 1.02,7.72 2.99,10.13 1.97,2.33 5.46,4.29 10.56,5.83l0 6.12 -84.34 0 0 -6.12c4.96,-1.31 8.45,-3.13 10.49,-5.54 2.04,-2.4 3.06,-5.83 3.06,-10.27l0 -195.2c0,-4.44 -1.02,-7.79 -2.99,-10.05 -1.97,-2.26 -5.46,-4.22 -10.56,-5.76l0 -6.12 84.34 0 0 6.12c-5.1,1.39 -8.59,3.28 -10.56,5.61 -1.97,2.41 -2.99,5.76 -2.99,10.13zm187.69 21.41l0 173.71c0,4.37 1.02,7.72 2.99,10.13 1.97,2.33 5.46,4.29 10.56,5.83l0 6.12 -84.34 0 0 -6.12c4.96,-1.31 8.45,-3.13 10.49,-5.54 2.04,-2.4 3.06,-5.83 3.06,-10.27l0 -173.86 -70.51 0c-4.59,0 -8.01,1.02 -10.34,2.99 -2.41,2.04 -4.23,5.53 -5.68,10.56l-5.68 0 0 -70.36 5.68 0c1.31,4.96 3.13,8.45 5.46,10.49 2.33,2.04 5.83,3.06 10.34,3.06l198.48 0c4.52,0 8.01,-1.02 10.34,-2.98 2.41,-1.97 4.22,-5.47 5.68,-10.57l5.68 0 0 70.36 -5.68 0c-1.46,-5.03 -3.28,-8.52 -5.68,-10.56 -2.33,-1.97 -5.76,-2.99 -10.34,-2.99l-70.51 0zm271.46 135.91l-110.05 0 -12.45 26c-3.06,6.27 -4.51,11.22 -4.51,14.72 0,6.84 4.59,11.22 13.69,13.04l0 6.12 -87.84 0 0 -6.12c5.39,-0.88 9.4,-2.48 12.02,-4.88 2.69,-2.48 5.75,-7.21 9.32,-14.28l87.26 -176.55c3.28,-6.63 4.88,-12.45 4.88,-17.48 0,-5.83 -3.93,-10.34 -11.95,-13.62l0 -6.12 92.87 0 0 6.12c-7.79,3.13 -11.73,7.94 -11.73,14.5 0,4.66 1.75,10.42 5.32,17.26l90.53 171.16c4.96,9.32 8.89,15.37 11.73,18.07 2.84,2.77 7.21,4.66 13.04,5.83l0 6.12 -97.46 0 0 -6.12c9.33,-1.53 13.99,-5.9 13.99,-12.97 0,-4.37 -1.82,-9.83 -5.32,-16.39l-13.33 -24.4zm-17.33 -33.65l-39.11 -76.77 -37.22 76.77 76.33 0zm210.28 50.26l133.87 0c4.59,0 8.02,-0.94 10.27,-2.91 2.26,-1.97 4.23,-5.47 5.76,-10.64l5.68 0 0 70.36 -5.68 0c-1.46,-5.1 -3.28,-8.59 -5.68,-10.56 -2.33,-1.97 -5.76,-2.99 -10.34,-2.99l-204.67 0 0 -6.12c4.96,-1.31 8.45,-3.13 10.49,-5.54 2.04,-2.4 3.06,-5.83 3.06,-10.27l0 -195.2c0,-4.44 -1.02,-7.79 -2.99,-10.05 -1.97,-2.26 -5.46,-4.22 -10.56,-5.76l0 -6.12 84.34 0 0 6.12c-5.1,1.39 -8.59,3.28 -10.56,5.68 -1.97,2.33 -2.99,5.68 -2.99,10.13l0 173.86z"/>
   <path class="fil0" d="M1336.87 521.47l-52.29 129.94c-2.62,6.41 -3.86,11.65 -3.86,15.8 0,7.94 4.66,12.82 14.05,14.49l0 5.68 -89.08 0 0 -5.68c8.52,-2.11 12.82,-6.99 12.82,-14.49 0,-3.86 -1.31,-9.1 -3.86,-15.8l-63.22 -163.01c-4.88,-12.53 -8.96,-20.9 -12.31,-25.05 -3.35,-4.22 -8.38,-7.21 -15.08,-8.89l0 -6.12 91.04 0 0 6.12c-8.82,2.84 -13.26,7.36 -13.26,13.48 0,2.99 1.46,8.08 4.3,15.37l44.86 112.82 44.65 -112.02c2.69,-6.7 4.08,-11.8 4.08,-15.37 0,-7.07 -4.81,-11.87 -14.35,-14.28l0 -6.12 106.27 0 0 6.12c-9.18,2.99 -13.84,7.94 -13.84,14.93 0,3.13 1.24,7.79 3.64,13.92l43.48 112.82 43.41 -113.92c1.89,-5.03 2.84,-9.32 2.84,-13.04 0,-4.01 -1.02,-7.07 -2.98,-9.18 -2.04,-2.11 -5.68,-4.01 -10.93,-5.54l0 -6.12 93.31 0 0 6.12c-6.99,2.55 -12.09,5.83 -15.3,9.69 -3.21,3.93 -7.21,12.02 -12.02,24.25l-64.17 163.01c-2.26,5.83 -3.35,10.93 -3.35,15.37 0,8.23 4.81,13.25 14.49,14.93l0 5.68 -92.64 0 0 -5.68c9.1,-2.55 13.69,-7.72 13.69,-15.58 0,-1.97 -1.61,-6.92 -4.74,-14.72l-49.67 -129.94z"/>
   <path class="fil0" d="M589.29 529.92l0 135.4c0,4.37 1.02,7.79 3.06,10.2 2.04,2.41 5.53,4.29 10.49,5.76l0 6.12 -79.1 0 0 -6.12c4.96,-1.31 8.45,-3.13 10.49,-5.54 2.04,-2.4 3.06,-5.83 3.06,-10.27l0 -195.2c0,-4.44 -1.02,-7.79 -2.99,-10.05 -1.97,-2.26 -5.46,-4.22 -10.56,-5.76l0 -6.12 91.7 0 0 6.12c-6.27,1.53 -9.39,4.3 -9.39,8.3 0,3.42 2.26,7.43 6.84,11.94l128.48 127.03 0 -131.46c0,-4.44 -1.02,-7.79 -2.98,-10.13 -1.97,-2.41 -5.47,-4.29 -10.56,-5.68l0 -6.12 79.1 0 0 6.12c-5.1,1.39 -8.59,3.28 -10.56,5.61 -1.97,2.41 -2.98,5.76 -2.98,10.13l0 195.12c0,4.37 1.02,7.72 2.98,10.13 1.97,2.33 5.46,4.29 10.56,5.83l0 6.12 -85.51 0 0 -6.12c6.26,-1.24 9.39,-3.86 9.39,-7.79 0,-2.04 -0.87,-4.08 -2.55,-6.19 -1.74,-2.11 -5.61,-6.26 -11.73,-12.45l-127.24 -124.91z"/>
   <path class="fil0" d="M485.29 420.37l-34.74 68.54 -5.97 -3.42c0.14,-1.38 0.22,-2.55 0.22,-3.42 0,-4.81 -4.15,-10.05 -12.38,-15.59 -25.35,-17.63 -55.06,-26.44 -89.22,-26.44 -15.08,0 -28.41,1.82 -39.99,5.54 -8.38,2.91 -15.15,7.14 -20.39,12.89 -5.17,5.68 -7.79,11.87 -7.79,18.57 0,11 6.63,18.5 19.81,22.43 6.84,2.04 21.49,4.16 43.99,6.48l33.5 3.42c19.89,2.12 36.05,5.03 48.36,8.74 12.31,3.71 23.16,8.88 32.7,15.58 9.69,6.99 17.33,16.17 22.94,27.53 5.61,11.44 8.45,23.6 8.45,36.56 0,20.47 -6.63,38.75 -19.81,54.7 -11.95,14.49 -30.52,25.27 -55.72,32.19 -18.79,5.32 -38.9,7.94 -60.38,7.94 -38.53,0 -76.55,-9.25 -114.13,-27.68 -7.94,-3.72 -12.67,-5.54 -14.28,-5.54 -1.82,0 -4.73,1.61 -8.74,4.66l-6.19 -3.13 31.61 -71.45 6.19 2.98c0,1.24 0,2.18 0,2.77 0,6.41 3.06,12.31 9.1,17.7 9.25,8.23 23.6,15.37 42.9,21.34 19.37,5.97 37.73,8.96 55.06,8.96 18.94,0 35.1,-3.21 48.44,-9.62 7.43,-3.57 13.33,-8.3 17.7,-14.2 4.44,-5.9 6.63,-12.09 6.63,-18.5 0,-9.69 -5.17,-16.6 -15.59,-20.76 -7.28,-2.84 -21.92,-5.46 -43.99,-7.87l-32.92 -3.42c-22,-2.33 -37.66,-4.52 -46.76,-6.56 -9.1,-2.04 -18.2,-5.39 -27.31,-9.98 -12.97,-6.41 -23.17,-16.03 -30.52,-28.84 -6.7,-11.58 -10.05,-24.84 -10.05,-39.77 0,-24.69 8.45,-45.09 25.42,-61.18 22.22,-21.27 55.57,-31.9 100.08,-31.9 18.58,0 35.98,1.89 52.01,5.68 16.09,3.79 36.13,10.71 60.24,20.83 8.23,3.28 13.25,4.88 15.15,4.88 2.98,0 6.41,-1.6 10.42,-4.88l5.97 3.2z"/>
   <polygon class="fil1 str0" points="948.06,484.83 983.56,517.43 1016.1,484.86 1019,533.04 1065.07,533.84 1033.68,569.39 1066.29,603.1 1019,605.18 1019.04,652.06 983.55,619.46 951.01,652.04 948.1,603.86 902.04,603.05 933.42,567.51 900.82,533.79 948.11,531.71 "/>
   <path class="fil2 str0" d="M983.55 562.73c2.83,0 5.13,2.3 5.13,5.14 0,2.83 -2.3,5.13 -5.13,5.13 -2.83,0 -5.13,-2.3 -5.13,-5.13 0,-2.84 2.3,-5.14 5.13,-5.14z"/>
   <path class="fil2 str0" d="M1019 601.52c2.02,0 3.66,1.64 3.66,3.66 0,2.03 -1.64,3.66 -3.66,3.66 -2.02,0 -3.66,-1.64 -3.66,-3.66 0,-2.02 1.64,-3.66 3.66,-3.66z"/>
   <path class="fil2 str0" d="M947.81 600.18c2.02,0 3.66,1.64 3.66,3.67 0,2.02 -1.64,3.66 -3.66,3.66 -2.02,0 -3.66,-1.64 -3.66,-3.66 0,-2.03 1.64,-3.67 3.66,-3.67z"/>
   <path class="fil2 str0" d="M948.11 527.83c2.02,0 3.66,1.64 3.66,3.66 0,2.02 -1.64,3.66 -3.66,3.66 -2.02,0 -3.66,-1.64 -3.66,-3.66 0,-2.02 1.64,-3.66 3.66,-3.66z"/>
   <path class="fil2 str0" d="M983.56 513.76c2.02,0 3.66,1.64 3.66,3.66 0,2.03 -1.64,3.67 -3.66,3.67 -2.02,0 -3.66,-1.64 -3.66,-3.67 0,-2.02 1.64,-3.66 3.66,-3.66z"/>
   <path class="fil2 str0" d="M933.37 563.79c2.02,0 3.66,1.64 3.66,3.66 0,2.03 -1.64,3.67 -3.66,3.67 -2.03,0 -3.67,-1.64 -3.67,-3.67 0,-2.02 1.64,-3.66 3.67,-3.66z"/>
   <path class="fil2 str0" d="M1033.71 565.69c2.02,0 3.66,1.64 3.66,3.66 0,2.02 -1.64,3.66 -3.66,3.66 -2.03,0 -3.67,-1.64 -3.67,-3.66 0,-2.02 1.64,-3.66 3.67,-3.66z"/>
   <path class="fil2 str0" d="M1019 529.37c2.03,0 3.67,1.64 3.67,3.66 0,2.02 -1.64,3.66 -3.67,3.66 -2.02,0 -3.66,-1.64 -3.66,-3.66 0,-2.02 1.64,-3.66 3.66,-3.66z"/>
   <path class="fil2 str0" d="M983.55 615.8c2.02,0 3.66,1.64 3.66,3.66 0,2.02 -1.64,3.66 -3.66,3.66 -2.02,0 -3.66,-1.64 -3.66,-3.66 0,-2.02 1.64,-3.66 3.66,-3.66z"/>
   <path class="fil3 str0" d="M902.04 599.38c2.02,0 3.66,1.64 3.66,3.66 0,2.02 -1.64,3.66 -3.66,3.66 -2.02,0 -3.66,-1.64 -3.66,-3.66 0,-2.02 1.64,-3.66 3.66,-3.66z"/>
   <path class="fil2 str0" d="M951.01 648.37c2.02,0 3.66,1.64 3.66,3.67 0,2.02 -1.64,3.66 -3.66,3.66 -2.02,0 -3.66,-1.64 -3.66,-3.66 0,-2.03 1.64,-3.67 3.66,-3.67z"/>
   <path class="fil2 str0" d="M1019.04 648.39c2.02,0 3.66,1.64 3.66,3.66 0,2.02 -1.64,3.66 -3.66,3.66 -2.02,0 -3.66,-1.64 -3.66,-3.66 0,-2.02 1.64,-3.66 3.66,-3.66z"/>
   <path class="fil2 str0" d="M1066.29 599.44c2.02,0 3.66,1.64 3.66,3.66 0,2.02 -1.64,3.66 -3.66,3.66 -2.02,0 -3.66,-1.64 -3.66,-3.66 0,-2.02 1.64,-3.66 3.66,-3.66z"/>
   <path class="fil2 str0" d="M1065.07 530.18c2.02,0 3.66,1.64 3.66,3.66 0,2.03 -1.64,3.67 -3.66,3.67 -2.03,0 -3.66,-1.64 -3.66,-3.67 0,-2.02 1.64,-3.66 3.66,-3.66z"/>
   <path class="fil2 str0" d="M1016.1 481.19c2.02,0 3.66,1.64 3.66,3.67 0,2.02 -1.64,3.66 -3.66,3.66 -2.02,0 -3.66,-1.64 -3.66,-3.66 0,-2.03 1.64,-3.67 3.66,-3.67z"/>
   <path class="fil2 str0" d="M948.06 481.17c2.02,0 3.66,1.64 3.66,3.66 0,2.02 -1.64,3.66 -3.66,3.66 -2.02,0 -3.66,-1.64 -3.66,-3.66 0,-2.02 1.64,-3.66 3.66,-3.66z"/>
   <path class="fil2 str0" d="M900.82 530.13c2.02,0 3.66,1.64 3.66,3.66 0,2.02 -1.64,3.66 -3.66,3.66 -2.03,0 -3.66,-1.64 -3.66,-3.66 0,-2.02 1.64,-3.66 3.66,-3.66z"/>
   <path class="fil3 str0" d="M901.04 564.28c1.41,0 2.57,1.15 2.57,2.57 0,1.42 -1.15,2.57 -2.57,2.57 -1.42,0 -2.57,-1.15 -2.57,-2.57 0,-1.41 1.15,-2.57 2.57,-2.57z"/>
   <path class="fil3 str0" d="M873.16 563.75c1.42,0 2.57,1.15 2.57,2.57 0,1.41 -1.15,2.57 -2.57,2.57 -1.41,0 -2.57,-1.15 -2.57,-2.57 0,-1.42 1.15,-2.57 2.57,-2.57z"/>
   <path class="fil2 str0" d="M926.12 506.08c1.42,0 2.57,1.15 2.57,2.57 0,1.42 -1.15,2.57 -2.57,2.57 -1.41,0 -2.57,-1.15 -2.57,-2.57 0,-1.41 1.15,-2.57 2.57,-2.57z"/>
   <path class="fil2 str0" d="M906.76 486c1.41,0 2.57,1.15 2.57,2.57 0,1.42 -1.15,2.57 -2.57,2.57 -1.42,0 -2.57,-1.15 -2.57,-2.57 0,-1.41 1.15,-2.57 2.57,-2.57z"/>
   <path class="fil2 str0" d="M983.55 482.81c1.41,0 2.57,1.15 2.57,2.57 0,1.41 -1.15,2.57 -2.57,2.57 -1.42,0 -2.57,-1.15 -2.57,-2.57 0,-1.42 1.15,-2.57 2.57,-2.57z"/>
   <path class="fil2 str0" d="M983.55 454.92c1.41,0 2.57,1.15 2.57,2.57 0,1.42 -1.15,2.57 -2.57,2.57 -1.42,0 -2.57,-1.15 -2.57,-2.57 0,-1.41 1.15,-2.57 2.57,-2.57z"/>
   <path class="fil2 str0" d="M1042.15 506.95c1.41,0 2.57,1.15 2.57,2.57 0,1.41 -1.15,2.57 -2.57,2.57 -1.42,0 -2.57,-1.15 -2.57,-2.57 0,-1.42 1.15,-2.57 2.57,-2.57z"/>
   <path class="fil2 str0" d="M1061.87 487.23c1.41,0 2.57,1.15 2.57,2.57 0,1.41 -1.15,2.57 -2.57,2.57 -1.42,0 -2.57,-1.15 -2.57,-2.57 0,-1.42 1.15,-2.57 2.57,-2.57z"/>
   <path class="fil2 str0" d="M1066.48 567.41c1.42,0 2.57,1.15 2.57,2.57 0,1.42 -1.15,2.57 -2.57,2.57 -1.41,0 -2.57,-1.15 -2.57,-2.57 0,-1.41 1.15,-2.57 2.57,-2.57z"/>
   <path class="fil2 str0" d="M1094.3 567.97c1.41,0 2.57,1.15 2.57,2.57 0,1.42 -1.15,2.57 -2.57,2.57 -1.42,0 -2.57,-1.15 -2.57,-2.57 0,-1.41 1.15,-2.57 2.57,-2.57z"/>
   <path class="fil2 str0" d="M1040.88 625.26c1.42,0 2.57,1.15 2.57,2.57 0,1.41 -1.15,2.57 -2.57,2.57 -1.41,0 -2.57,-1.15 -2.57,-2.57 0,-1.42 1.15,-2.57 2.57,-2.57z"/>
   <path class="fil2 str0" d="M983.54 648.27c1.42,0 2.57,1.15 2.57,2.57 0,1.42 -1.15,2.57 -2.57,2.57 -1.41,0 -2.57,-1.15 -2.57,-2.57 0,-1.41 1.15,-2.57 2.57,-2.57z"/>
   <path class="fil2 str0" d="M1060.16 645.33c1.41,0 2.57,1.15 2.57,2.57 0,1.42 -1.15,2.57 -2.57,2.57 -1.42,0 -2.57,-1.15 -2.57,-2.57 0,-1.41 1.15,-2.57 2.57,-2.57z"/>
   <path class="fil2 str0" d="M983.54 676.16c1.42,0 2.57,1.15 2.57,2.57 0,1.41 -1.15,2.57 -2.57,2.57 -1.41,0 -2.57,-1.15 -2.57,-2.57 0,-1.42 1.15,-2.57 2.57,-2.57z"/>
   <path class="fil2 str0" d="M925.15 623.96c1.42,0 2.57,1.15 2.57,2.57 0,1.41 -1.15,2.57 -2.57,2.57 -1.41,0 -2.57,-1.15 -2.57,-2.57 0,-1.42 1.15,-2.57 2.57,-2.57z"/>
   <path class="fil3 str0" d="M905.5 643.66c1.42,0 2.57,1.15 2.57,2.57 0,1.41 -1.15,2.57 -2.57,2.57 -1.41,0 -2.57,-1.15 -2.57,-2.57 0,-1.42 1.15,-2.57 2.57,-2.57z"/>
   <path class="fil2 str0" d="M888.23 464.93c2.43,0 4.4,1.97 4.4,4.4 0,2.43 -1.97,4.4 -4.4,4.4 -2.43,0 -4.4,-1.97 -4.4,-4.4 0,-2.43 1.97,-4.4 4.4,-4.4z"/>
   <path class="fil2 str0" d="M983.57 426.39c2.43,0 4.4,1.97 4.4,4.4 0,2.43 -1.97,4.4 -4.4,4.4 -2.43,0 -4.4,-1.97 -4.4,-4.4 0,-2.43 1.97,-4.4 4.4,-4.4z"/>
   <path class="fil2 str0" d="M1080.73 466.51c2.43,0 4.4,1.97 4.4,4.4 0,2.43 -1.97,4.4 -4.4,4.4 -2.43,0 -4.4,-1.97 -4.4,-4.4 0,-2.43 1.97,-4.4 4.4,-4.4z"/>
   <path class="fil2 str0" d="M1120.56 566.6c2.43,0 4.4,1.97 4.4,4.4 0,2.43 -1.97,4.4 -4.4,4.4 -2.43,0 -4.4,-1.97 -4.4,-4.4 0,-2.43 1.97,-4.4 4.4,-4.4z"/>
   <path class="fil2 str0" d="M1078.4 662.39c2.43,0 4.4,1.97 4.4,4.4 0,2.43 -1.97,4.4 -4.4,4.4 -2.43,0 -4.4,-1.97 -4.4,-4.4 0,-2.43 1.97,-4.4 4.4,-4.4z"/>
   <path class="fil2 str0" d="M983.54 700.54c2.43,0 4.4,1.97 4.4,4.4 0,2.43 -1.97,4.4 -4.4,4.4 -2.43,0 -4.4,-1.97 -4.4,-4.4 0,-2.43 1.97,-4.4 4.4,-4.4z"/>
   <path class="fil3 str0" d="M886.91 660.38c2.43,0 4.4,1.97 4.4,4.4 0,2.43 -1.97,4.4 -4.4,4.4 -2.43,0 -4.4,-1.97 -4.4,-4.4 0,-2.43 1.97,-4.4 4.4,-4.4z"/>
   <path class="fil3 str0" d="M846.47 561.41c2.43,0 4.4,1.97 4.4,4.4 0,2.43 -1.97,4.4 -4.4,4.4 -2.43,0 -4.4,-1.97 -4.4,-4.4 0,-2.43 1.97,-4.4 4.4,-4.4z"/>
   <line class="fil1 str0" x1="966.86" y1="695.47" x2="983.54" y2= "678.73" />
   <line class="fil1 str0" x1="983.51" y1="678.67" x2="1000.2" y2= "695.42" />
   <line class="fil1 str0" x1="958.4" y1="676.07" x2="983.54" y2= "650.84" />
   <line class="fil1 str0" x1="983.5" y1="650.76" x2="1008.64" y2= "675.99" />
   <line class="fil1 str0" x1="1061.85" y1="489.86" x2="1061.9" y2= "466.22" />
   <line class="fil1 str0" x1="966.87" y1="440.74" x2="983.55" y2= "457.48" />
   <line class="fil1 str0" x1="983.52" y1="457.54" x2="1000.2" y2= "440.8" />
   <line class="fil1 str0" x1="958.41" y1="460.14" x2="983.55" y2= "485.37" />
   <line class="fil1 str0" x1="983.5" y1="485.45" x2="1008.65" y2= "460.22" />
   <line class="fil1 str0" x1="1085.51" y1="489.75" x2="1061.87" y2= "489.79" />
   <line class="fil1 str0" x1="1077.78" y1="509.45" x2="1042.15" y2= "509.51" />
   <line class="fil1 str0" x1="1042.13" y1="509.6" x2="1042.19" y2= "473.98" />
   <line class="fil1 str0" x1="983.57" y1="430.79" x2="983.54" y2= "704.93" />
   <line class="fil1 str0" x1="905.39" y1="669.88" x2="905.43" y2= "646.24" />
   <line class="fil1 str0" x1="846.47" y1="565.8" x2="1120.56" y2= "571" />
   <line class="fil1 str0" x1="856.1" y1="582.69" x2="873.16" y2= "566.32" />
   <line class="fil1 str0" x1="873.21" y1="566.36" x2="856.79" y2= "549.36" />
   <line class="fil1 str0" x1="875.34" y1="591.51" x2="901.04" y2= "566.85" />
   <line class="fil1 str0" x1="901.12" y1="566.9" x2="876.37" y2= "541.28" />
   <line class="fil1 str0" x1="1110.79" y1="587.5" x2="1094.36" y2= "570.5" />
   <line class="fil1 str0" x1="1094.3" y1="570.53" x2="1111.36" y2= "554.16" />
   <line class="fil1 str0" x1="1091.24" y1="595.59" x2="1066.48" y2= "569.97" />
   <line class="fil1 str0" x1="1066.4" y1="570.03" x2="1092.1" y2= "545.36" />
   <line class="fil1 str0" x1="888.23" y1="469.32" x2="1078.4" y2= "666.79" />
   <line class="fil1 str0" x1="883.11" y1="488.08" x2="906.74" y2= "488.57" />
   <line class="fil1 str0" x1="906.76" y1="488.63" x2="907.16" y2= "464.99" />
   <line class="fil1 str0" x1="890.48" y1="507.92" x2="926.09" y2= "508.64" />
   <line class="fil1 str0" x1="926.12" y1="508.74" x2="926.72" y2= "473.12" />
   <line class="fil1 str0" x1="1059.82" y1="671.55" x2="1060.22" y2= "647.91" />
   <line class="fil1 str0" x1="1060.16" y1="647.89" x2="1083.8" y2= "648.38" />
   <line class="fil1 str0" x1="1040.27" y1="663.45" x2="1040.88" y2= "627.83" />
   <line class="fil1 str0" x1="1040.78" y1="627.8" x2="1076.4" y2= "628.53" />
   <line class="fil1 str0" x1="1080.73" y1="470.9" x2="886.91" y2= "664.78" />
   <line class="fil1 str0" x1="905.5" y1="646.23" x2="881.86" y2= "646.27" />
   <line class="fil1 str0" x1="925.09" y1="662.15" x2="925.15" y2= "626.52" />
   <line class="fil1 str0" x1="925.25" y1="626.5" x2="889.62" y2= "626.56" />
  </g>
 </g>
</svg>
